<?xml version="1.0" encoding="UTF-8" standalone="no"?>
<!-- Created with Inkscape (http://www.inkscape.org/) -->

<svg
   version="1.1"
   id="svg2"
   width="2232.1633"
   height="2046.7649"
   viewBox="0 0 2232.1633 2046.7649"
   xmlns="http://www.w3.org/2000/svg"
   xmlns:svg="http://www.w3.org/2000/svg">
  <defs
     id="defs6" />
  <g
     id="g8"
     transform="matrix(1.3333333,0,0,-1.3333333,-1385.2947,2352.6489)">
    <g
       id="g1">
      <path
         d="m 1984.516,267.25295 c 0,-20.9 -59.87,-37.84 -133.72,-37.84 -73.86,0 -133.726,16.94 -133.726,37.84 0,20.89 59.866,37.83 133.726,37.83 73.85,0 133.72,-16.94 133.72,-37.83"
         style="fill:#62bdf3;fill-opacity:1;fill-rule:nonzero;stroke:none;stroke-width:0.1"
         id="path378" />
      <path
         d="m 1717.07,331.09295 c 0,-20.9 -138.473,-37.84 -309.289,-37.84 -170.816,0 -309.29,16.94 -309.29,37.84 0,20.89 138.474,37.83 309.29,37.83 170.816,0 309.289,-16.94 309.289,-37.83"
         style="fill:#62bdf3;fill-opacity:1;fill-rule:nonzero;stroke:none;stroke-width:0.1"
         id="path380" />
      <path
         d="m 2367.886,331.09295 c 0,-20.9 -71.66,-37.84 -160.06,-37.84 -88.4,0 -160.06,16.94 -160.06,37.84 0,20.89 71.66,37.83 160.06,37.83 88.4,0 160.06,-16.94 160.06,-37.83"
         style="fill:#62bdf3;fill-opacity:1;fill-rule:nonzero;stroke:none;stroke-width:0.1"
         id="path382" />
      <path
         d="m 1651.835,1434.653 c -0.269,0 -0.536,0.11 -0.714,0.35 -0.303,0.39 -0.23,0.95 0.163,1.26 0.116,0.09 11.762,8.85 27.868,1.05 0.448,-0.22 0.634,-0.76 0.417,-1.2 -0.215,-0.45 -0.755,-0.64 -1.203,-0.42 -15.071,7.31 -25.545,-0.52 -25.982,-0.86 -0.164,-0.12 -0.357,-0.18 -0.549,-0.18"
         style="fill:#3797db;fill-opacity:1;fill-rule:nonzero;stroke:none;stroke-width:0.1"
         id="path384" />
      <path
         d="m 1906.456,499.09295 c -331.018,172.98 -443.885,352.24 -479.815,473.96 h 212.611 c -1.21,-19.1 -6.875,-37.83 -16.48,-54.4 -4.723,-7.79 -7.236,-16.82 -7.236,-26.04 0,-27.8 22.616,-50.41 50.417,-50.41 27.8,0 50.416,22.61 50.416,50.41 0,9.22 -2.514,18.25 -7.271,26.1 -9.572,16.51 -15.236,35.24 -16.446,54.34 h 213.804 v -198.07 l 3.92,0.35 c 18.96,1.7 37.69,7.63 54.16,17.18 6.78,4.11 14.51,6.27 22.42,6.27 23.83,0 43.21,-19.39 43.21,-43.21 0,-23.83 -19.38,-43.22 -43.21,-43.22 -7.91,0 -15.64,2.16 -22.36,6.23 -16.53,9.58 -35.26,15.52 -54.22,17.21 l -3.92,0.35 v -237.05"
         style="fill:#3b77be;fill-opacity:1;fill-rule:nonzero;stroke:none;stroke-width:0.1"
         id="path386" />
      <path
         d="m 1913.656,728.21295 c 16.74,-2.02 32.62,-7.34 47.27,-15.83 7.78,-4.72 16.81,-7.23 26.03,-7.23 27.8,0 50.42,22.62 50.42,50.42 0,27.8 -22.62,50.41 -50.42,50.41 -9.22,0 -18.25,-2.51 -26.1,-7.27 -14.59,-8.46 -30.46,-13.77 -47.2,-15.79 v 190.13 h 251.75 l 0.12,3.49 c 0.82,24.61005 -5.28,48.88005 -17.63,70.18005 -4.11,6.78 -6.26,14.52 -6.26,22.42 0,23.83 19.38,43.21 43.21,43.21 23.83,0 43.21,-19.38 43.21,-43.21 0,-7.91 -2.15,-15.64 -6.22,-22.36 -12.39,-21.36 -18.48,-45.63 -17.66,-70.24005 l 0.11,-3.49 h 189.18 c -35.93,-121.72 -148.8,-300.98 -479.81,-473.96 v 229.12"
         style="fill:#62bdf3;fill-opacity:1;fill-rule:nonzero;stroke:none;stroke-width:0.1"
         id="path388" />
      <path
         d="m 1914.556,727.19295 v -226.61 c 329.81,172.67 441.89,351.5 477.7,471.57 h -188.84 l -0.14,4.36 c -0.83,24.78005 5.32,49.23005 17.78,70.72005 3.99,6.6 6.1,14.17 6.1,21.91 0,23.33 -18.98,42.31 -42.31,42.31 -23.33,0 -42.31,-18.98 -42.31,-42.31 0,-7.74 2.12,-15.33 6.13,-21.95 12.44,-21.47 18.58,-45.9 17.76,-70.68005 l -0.15,-4.36 h -251.72 v -188.21 c 16.24,2.09 31.66,7.32 45.85,15.55 7.98,4.83 17.16,7.39 26.55,7.39 28.3,0 51.32,-23.02 51.32,-51.31 0,-28.3 -23.02,-51.32 -51.32,-51.32 -9.39,0 -18.55,2.54 -26.5,7.36 -14.22,8.25 -29.66,13.49 -45.9,15.58 z m -1.8,-229.59 v 231.62 l 1.01,-0.12 c 16.85,-2.03 32.86,-7.39 47.61,-15.94 7.68,-4.65 16.52,-7.11 25.58,-7.11 27.3,0 49.52,22.21 49.52,49.52 0,27.3 -22.22,49.51 -49.52,49.51 -9.06,0 -17.92,-2.47 -25.63,-7.14 -14.72,-8.53 -30.71,-13.88 -47.56,-15.91 l -1.01,-0.12 v 192.04 h 251.78 l 0.09,2.62 c 0.81,24.44005 -5.24,48.54005 -17.51,69.70005 -4.17,6.89 -6.38,14.8 -6.38,22.87 0,24.32 19.79,44.11 44.11,44.11 24.32,0 44.11,-19.79 44.11,-44.11 0,-8.07 -2.19,-15.96 -6.35,-22.83 -12.28,-21.18 -18.35,-45.3 -17.53,-69.74005 l 0.08,-2.62 h 189.52 l -0.35,-1.15 c -35.59,-120.58 -147.8,-300.78 -480.25,-474.51 l -1.32,-0.69"
         style="fill:#96d9c9;fill-opacity:1;fill-rule:nonzero;stroke:none;stroke-width:0.1"
         id="path390" />
      <path
         d="m 1665.953,849.40295 c -23.828,0 -43.214,19.39 -43.214,43.21 0,7.91 2.154,15.64 6.228,22.37 10.858,18.72 16.954,39.99 17.663,61.56 l 0.123,3.72 h -222.168 c -9.349,33.90005 -14.089,67.99005 -14.089,101.37005 0,77.55 24.547,150.06 69.118,204.19 45.902,55.74 109.422,86.44 178.86,86.44 85.142,0 148.142,-35.49 185.992,-65.26 37.43,-29.44 58.36,-59.25 61.99,-64.63 v -91.6 c -15.23,2.37 -29.72,7.49 -43.1,15.25 -7.79,4.72 -16.81,7.24 -26.04,7.24 -27.8,0 -50.41,-22.62 -50.41,-50.42 0,-27.8 22.61,-50.42 50.41,-50.42 9.23,0 18.25,2.52 26.1,7.27 13.33,7.73 27.81,12.85 43.04,15.21 V 980.26295 h -221.304 l 0.122,-3.72 c 0.71,-21.57 6.806,-42.84 17.627,-61.5 4.111,-6.79 6.265,-14.52 6.265,-22.43 0,-23.82 -19.386,-43.21 -43.213,-43.21"
         style="fill:#9ed16f;fill-opacity:1;fill-rule:nonzero;stroke:none;stroke-width:0.1"
         id="path392" />
      <path
         d="m 1659.661,1391.423 c -10.165,-1.64 -9.564,-3.29 -10.871,-3.47 -1.547,-0.21 -19.895,8.98 -19.895,8.98 0,0 -54.266,26.71 -57.143,28.26 l -39.168,49.14 -30.187,-13.89 c 0,0 44.051,-52.24 46.838,-54.54 2.788,-2.3 80.596,-29.51 87.361,-32.13 0,0 6.823,-6.22 11.237,-9.98 4.415,-3.75 10.317,-5.24 11.728,-6.1 0.208,-0.12 5.075,-2.69 11.956,-4.18 5.929,-1.28 0.988,2.73 0.988,2.73 0,0 -10.489,4.42 -9.974,5.22 0.399,0.61 5.974,-2.15 12.518,-3.65 1.683,-0.38 3.345,-0.75 4.874,-1.08 4.017,-0.87 5.781,1.43 1.746,3.02 -1.426,0.56 -3.817,1.44 -5.618,1.81 -1.946,0.41 -3.581,1.43 -5.155,2.03 -3.126,1.18 -5.422,2.01 -5.299,2.11 0.16,0.14 -0.28,0.83 1.521,0.48 2.164,-0.42 6.53,-2.36 9.769,-2.73 1.837,-0.2 5.641,-0.88 5.641,-0.88 0,0 6.732,-0.64 6.779,0.3 0.1,2.06 -4.045,3.21 -6.591,3.15 -1.604,0.82 -5.63,1.41 -5.63,1.41 0,0 -7.809,3.07 -7.355,4.23 0.181,0.46 4.908,-0.25 9.924,-0.59 5.303,-0.37 9.143,-0.36 9.427,0.66 0.448,1.62 -3.772,2.24 -3.772,2.24 0,0 -3.721,0.54 -4.94,0.82 -1.428,0.32 -5.621,1.63 -5.621,1.63 0,0 -14.362,5.26 -13.842,6.32 0.518,1.06 2.889,3.27 3.903,3.26 1.012,0 2.823,-1.01 3.836,-1.02 1.012,0 3.192,0.19 3.342,1.46 0.152,1.27 -5.471,3.9 -5.471,3.9 0,0 -3.921,1.56 -6.856,1.08"
         style="fill:#efac7f;fill-opacity:1;fill-rule:nonzero;stroke:none;stroke-width:0.1"
         id="path394" />
      <path
         d="m 1559.841,1443.893 c 0,0 -9.772,-8.85 -13.837,-11.77 -3.378,-2.42 -19.845,-10.32 -19.845,-10.32 0,0 -16.381,25.01 -23.544,37.55 -8.69,15.22 -14.707,37.85 -12.653,38.46 5.765,1.72 13.696,2.78 21.021,-0.58 25.345,-11.6 48.858,-53.34 48.858,-53.34"
         style="fill:#3b77be;fill-opacity:1;fill-rule:nonzero;stroke:none;stroke-width:0.1"
         id="path396" />
      <path
         d="m 1650.17,1378.353 c 4.348,-0.68 8.795,0.14 10.721,4.11 0.434,-4.71 -6.722,-7.04 -10.721,-4.11"
         style="fill:#fe875e;fill-opacity:1;fill-rule:nonzero;stroke:none;stroke-width:0.1"
         id="path398" />
      <path
         d="m 1399.892,1062.453 c 0,0 -1.084,-19.15 -1.09,-19.19 -0.399,-2.43 -1.968,-8.44 -1.968,-10.65 0,-8.3 36.944,7.05 28.664,10.73 -0.749,0.33 -4.675,2.85 -4.921,5.68 -0.38,4.35 -1.344,13.16 -1.344,13.16 l -19.341,0.27"
         style="fill:#efac7f;fill-opacity:1;fill-rule:nonzero;stroke:none;stroke-width:0.1"
         id="path400" />
      <path
         d="m 1425.407,1043.423 c 0,0 -8.674,-2.54 -13.116,-3.18 -4.443,-0.63 -10.3,4.72 -13.442,3.27 -3.458,-1.59 -3.323,-15.9 -3.323,-15.9 0,0 46.514,-4.07 59.594,0.14 5.181,1.67 -11.981,9.75 -29.713,15.67"
         style="fill:#45258f;fill-opacity:1;fill-rule:nonzero;stroke:none;stroke-width:0.1"
         id="path402" />
      <path
         d="m 1340.515,1063.603 c 0,0 -1.084,-19.15 -1.09,-19.19 -0.398,-2.43 -1.967,-8.43 -1.967,-10.64 0,-8.31 36.943,7.04 28.664,10.72 -0.749,0.34 -5.84,4.74 -6.086,7.56 -0.38,4.36 -0.179,11.28 -0.179,11.28 l -19.342,0.27"
         style="fill:#efac7f;fill-opacity:1;fill-rule:nonzero;stroke:none;stroke-width:0.1"
         id="path404" />
      <path
         d="m 1366.03,1044.573 c 0,0 -8.673,-2.54 -13.116,-3.17 -4.442,-0.64 -10.299,4.71 -13.441,3.26 -3.458,-1.58 -3.596,-15.89 -3.596,-15.89 0,0 46.182,-1.89 59.866,0.14 5.385,0.8 -11.98,9.75 -29.713,15.66"
         style="fill:#45258f;fill-opacity:1;fill-rule:nonzero;stroke:none;stroke-width:0.1"
         id="path406" />
      <path
         d="m 1348.881,1365.663 c 0,0 -6.261,-32.3 -3.71,-56.8 2.552,-24.49 2.752,-111.5 2.752,-111.5 l -9.736,-139.22 23.103,-0.54 c 0,0 27.395,139.15 26.883,135.58 -0.51,-3.57 9.186,97.98 9.186,97.98 l -32.659,77.56 -15.819,-3.06"
         style="fill:#2d185d;fill-opacity:1;fill-rule:nonzero;stroke:none;stroke-width:0.1"
         id="path408" />
      <path
         d="m 1357.64,1386.523 c 0,0 -28.364,-29.78 -17.813,-62.32 4.238,-13.07 43.768,-137.94 44.279,-148.14 0.51,-10.21 13.368,-123.01 13.368,-123.01 l 26.864,0.8 5.811,125.42 -7.678,168.99 -16.307,28.5 -48.524,9.76"
         style="fill:#45258f;fill-opacity:1;fill-rule:nonzero;stroke:none;stroke-width:0.1"
         id="path410" />
      <path
         d="m 1529.846,1483.143 c -9.287,10.33 -29.504,25.38 -29.504,25.38 0,0 -12.042,10.26 -16.953,11.95 -7.225,2.48 -19.602,9.11 -37.503,-17.94 -12.811,-19.37 -93.649,-119.61 -106.919,-122.98 l 86.655,-41.34 c 2.373,19.75 45.203,57.04 51.366,64 13.775,15.56 61.65,71.15 52.858,80.93"
         style="fill:#3797db;fill-opacity:1;fill-rule:nonzero;stroke:none;stroke-width:0.1"
         id="path412" />
      <path
         d="m 1525.806,1525.493 -26.994,-15.76 c 0,0 -0.76,-22.98 8.065,-28.94 7.404,-5.01 13.04,7.01 13.04,7.01 0,0 10.037,13.86 17.662,18.19 7.625,4.32 -11.773,19.5 -11.773,19.5"
         style="fill:#efac7f;fill-opacity:1;fill-rule:nonzero;stroke:none;stroke-width:0.1"
         id="path414" />
      <path
         d="m 1521.276,1515.373 c 1.016,-4.79 3.366,-11.72 7.007,-17.43 2.974,3.21 6.316,6.36 9.296,8.05 3.518,1.99 1.28,6.3 -2.15,10.36 -4.843,5.02 -9.623,9.14 -9.623,9.14 l -5.188,-3.03 c -0.334,-1.96 0.32,-5.49 0.658,-7.09"
         style="fill:#d19369;fill-opacity:1;fill-rule:nonzero;stroke:none;stroke-width:0.1"
         id="path416" />
      <path
         d="m 1539.865,1564.983 c -0.453,0.56 -22.642,-26.99 -19.907,-39.9 2.736,-12.92 16.151,-24.71 25.474,-21.47 10.312,3.58 29.488,36.01 22.611,51.75 -6.878,15.74 -28.178,9.62 -28.178,9.62"
         style="fill:#efac7f;fill-opacity:1;fill-rule:nonzero;stroke:none;stroke-width:0.1"
         id="path418" />
      <path
         d="m 1564.162,1573.663 c -9.673,5.37 -25.452,6.91 -37.241,0.75 -14.496,-7.56 -17.798,-26.6 -13.259,-38.22 4.538,-11.61 -0.659,-18.18 -0.659,-18.18 l 7.689,4.48 c 0,0 4.491,6.99 5.078,12.56 0.586,5.57 8.738,4.59 12.716,7.11 3.065,1.95 6.976,8.27 11.933,11.55 0,0 12.482,1.53 18.62,-1.91 10.465,-5.85 8.978,14.18 -4.877,21.86"
         style="fill:#5e2e0d;fill-opacity:1;fill-rule:nonzero;stroke:none;stroke-width:0.1"
         id="path420" />
      <path
         d="m 1607.019,1350.863 c -10.6,1.28 -10.584,0.43 -11.94,0.63 -1.603,0.24 -18.083,14.38 -18.083,14.38 0,0 -48.841,41.36 -51.401,43.69 l -26.799,59.21 -35.378,-5.25 c 0,0 32.975,-69.61 35.28,-72.64 2.306,-3.03 74.757,-45.27 81.001,-49.74 0,0 5.515,-7.99 9.144,-12.89 3.628,-4.91 9.249,-8.03 10.483,-9.26 0.182,-0.18 4.527,-4.06 11.134,-7.46 5.693,-2.93 1.591,2.38 1.591,2.38 0,0 -9.604,7.27 -8.91,7.9 0.534,0.49 5.549,-3.78 11.816,-7.09 1.612,-0.85 3.204,-1.68 4.674,-2.44 3.857,-1.98 6.135,-0.24 2.418,2.45 -1.313,0.95 -3.532,2.48 -5.264,3.36 -1.872,0.94 -3.297,2.4 -4.753,3.42 -2.891,2.05 -4.863,3.38 -4.715,3.45 0.191,0.09 -0.263,1 1.476,0.15 2.088,-1.02 6.062,-4.15 9.247,-5.42 1.804,-0.72 5.49,-2.46 5.49,-2.46 0,0 5.441,-0.69 5.647,-0.38 1.111,1.7 -2.129,3.02 -4.704,3.69 -1.438,1.25 -5.364,2.96 -5.364,2.96 0,0 -7.197,5.21 -6.488,6.2 0.271,0.38 4.51,-2.51 9.699,-4.45 5.944,-2.21 8.795,-1.01 9.323,-0.06 0.806,1.46 -2.823,2.35 -2.823,2.35 0,0 -4.981,1.21 -6.148,1.82 -1.369,0.72 -17.276,12.74 -16.522,13.63 0.752,0.88 3.204,0.89 4.223,0.59 1.018,-0.29 2.823,-1.02 3.842,-1.31 1.019,-0.29 2.804,0.89 3.234,2.08 0.43,1.19 -3.383,3.36 -3.383,3.36 0,0 -3.987,2.79 -7.047,3.15"
         style="fill:#efac7f;fill-opacity:1;fill-rule:nonzero;stroke:none;stroke-width:0.1"
         id="path422" />
      <path
         d="m 1469.035,1434.743 c 0,0 10.178,3.23 16.707,6.21 4.372,1.99 23.444,11.46 23.444,11.46 0,0 -8.222,34.58 -13.781,47.02 -20.399,45.64 -43.583,14.16 -46.728,6.83 -7.035,-16.41 20.358,-71.52 20.358,-71.52"
         style="fill:#62bdf3;fill-opacity:1;fill-rule:nonzero;stroke:none;stroke-width:0.1"
         id="path424" />
      <path
         d="m 2211.306,980.26295 c -0.12,22.06005 5.63,43.72005 16.72,62.85005 4.72,7.78 7.24,16.81 7.24,26.03 0,27.8 -22.62,50.42 -50.42,50.42 -27.8,0 -50.41,-22.62 -50.41,-50.42 0,-9.22 2.51,-18.24 7.26,-26.09 11.06,-19.07 16.81,-40.73 16.69,-62.79005 h -244.73 V 1103.113 l -4.04,-0.5 c -17.68,-2.16 -34.46,-7.79 -49.88,-16.72 -6.78,-4.11 -14.51,-6.27 -22.42,-6.27 -23.82,0 -43.21,19.39 -43.21,43.22 0,23.82 19.39,43.21 43.21,43.21 7.91,0 15.64,-2.15 22.36,-6.23 15.48,-8.97 32.26,-14.6 49.94,-16.76 l 4.04,-0.49 v 99.8 c 3.62,5.38 24.56,35.19 61.99,64.63 37.85,29.77 100.84,65.26 185.99,65.26 69.44,0 132.95,-30.7 178.86,-86.44 44.57,-54.13 69.11,-126.64 69.11,-204.19 0,-33.37 -4.73,-67.47 -14.08,-101.37005 h -184.22"
         style="fill:#7772d6;fill-opacity:1;fill-rule:nonzero;stroke:none;stroke-width:0.1"
         id="path426" />
      <path
         d="m 2397.086,820.42295 h -73.34 c -3.64,0 -6.58,2.94 -6.58,6.57 v 0 c 0,3.64 2.94,6.58 6.58,6.58 h 73.34 c 3.63,0 6.57,-2.94 6.57,-6.58 v 0 c 0,-3.63 -2.94,-6.57 -6.57,-6.57"
         style="fill:#7772d6;fill-opacity:1;fill-rule:nonzero;stroke:none;stroke-width:0.1"
         id="path428" />
      <path
         d="m 2404.286,810.04295 h -87.74 c -3.64,0 -6.58,2.94 -6.58,6.58 v 0 c 0,3.63 2.94,6.57 6.58,6.57 h 87.74 c 3.63,0 6.58,-2.94 6.58,-6.57 v 0 c 0,-3.64 -2.95,-6.58 -6.58,-6.58"
         style="fill:#45258f;fill-opacity:1;fill-rule:nonzero;stroke:none;stroke-width:0.1"
         id="path430" />
      <path
         d="m 2147.006,372.31295 c 0,0 -6.76,-6.68 -6.91,-9.13 -0.15,-2.45 -0.6,-28.72 2.16,-31.17 2.76,-2.45 10.86,-4.19 8.25,-6.95 -1.97,-2.08 -17.11,-1.64 -27.14,-1.08 -2.93,0.17 -6.61,23.86 -7.76,27.34 -1.69,5.05 -7.76,16.06 -6.23,19.58 0.75,1.72 6.29,5.64 11.32,8.93 5.3,3.46 10.36,11.18 10.36,11.18 l 15.95,-18.7"
         style="fill:#efac7f;fill-opacity:1;fill-rule:nonzero;stroke:none;stroke-width:0.1"
         id="path432" />
      <path
         d="m 2237.366,355.90295 c 0,0 -6.05,-17.31 -6.06,-17.35 -0.45,-2.74 -2.22,-9.52 -2.22,-12.01 0,-9.37 41.67,7.95 32.33,12.1 -0.84,0.37 -3.49,3.37 -3.77,6.56 -0.43,4.91 3.51,11.07 3.51,11.07 l -23.79,-0.37"
         style="fill:#efac7f;fill-opacity:1;fill-rule:nonzero;stroke:none;stroke-width:0.1"
         id="path434" />
      <path
         d="m 2294.866,684.51295 15.08,-39.06 c 0,0 9.84,-93.24 4.11,-149.05 -2.39,-23.34 -54.28,-148.29 -54.28,-148.29 l -25.78,3.68 34.52,147.97 -12.7,56.58 -17.98,111.85 57.03,16.32"
         style="fill:#2d185d;fill-opacity:1;fill-rule:nonzero;stroke:none;stroke-width:0.1"
         id="path436" />
      <path
         d="m 2223.796,682.48295 -12.94,-43.5 -19.68,-131.3 -66.57,-122.83 c 0,0 10.01,-15.36 20.76,-17.78 l 94.48,124.13 51.2,155.41 -1.79,34.52 -65.46,1.35"
         style="fill:#45258f;fill-opacity:1;fill-rule:nonzero;stroke:none;stroke-width:0.1"
         id="path438" />
      <path
         d="m 2422.476,754.90295 c -7.75,-3.51 -6.95,-4.96 -7.96,-5.38 -1.19,-0.49 -17.5,4.69 -17.5,4.69 0,0 -48.15,14.9 -50.73,15.82 l -40.47,39.06 -21.29,-18.96 c 0,0 44.93,-41.08 47.58,-42.72 2.65,-1.65 69.58,-12.49 75.45,-13.68 0,0 6.6,-4.59 10.82,-7.3 4.22,-2.71 9.19,-2.99 10.47,-3.53 0.19,-0.08 4.54,-1.57 10.28,-1.67 4.95,-0.08 0.27,2.78 0.27,2.78 0,0 -9.17,2.17 -8.91,3.03 0.19,0.66 5.15,-0.89 10.62,-1.05 1.41,-0.04 2.8,-0.07 4.08,-0.09 3.35,-0.05 4.31,2.46 0.8,3.2 -1.23,0.26 -3.3,0.63 -4.8,0.64 -1.62,0.01 -3.11,0.66 -4.47,0.93 -2.71,0.52 -4.69,0.86 -4.61,0.99 0.1,0.16 -0.38,0.73 1.11,0.74 1.8,0.02 5.63,-0.98 8.27,-0.71 1.5,0.16 4.65,0.25 4.65,0.25 0,0 5.08,0.84 5.11,1.2 0.17,1.97 -3.62,2.65 -5.62,2.11 -1.43,0.47 -4.74,0.25 -4.74,0.25 0,0 -6.78,1.41 -6.64,2.59 0.11,0.97 16.86,1.43 16.91,3.42 0.05,1.63 -4.99,1.77 -4.99,1.77 0,0 -3.06,-0.2 -4.08,-0.17 -1.2,0.03 -4.77,0.47 -4.77,0.47 0,0 -12.4,2.23 -12.19,3.33 0.21,1.1 1.67,3.65 2.47,3.84 0.81,0.19 2.44,-0.42 3.24,-0.23 0.81,0.19 1.72,1.29 1.59,2.52 -0.12,1.23 -4.3,2.16 -4.3,2.16 0,0 -3.41,0.72 -5.65,-0.3"
         style="fill:#f8a492;fill-opacity:1;fill-rule:nonzero;stroke:none;stroke-width:0.1"
         id="path440" />
      <path
         d="m 2320.366,799.18295 -20.25,-27.52 c 0,0 -17.9,21.46 -25.95,32.24 -9.77,13.08 -20.47,31.17 -18.89,32.15 4.47,2.76 10.02,5.68 16.55,3.98 22.59,-5.88 48.54,-40.85 48.54,-40.85"
         style="fill:#3b77be;fill-opacity:1;fill-rule:nonzero;stroke:none;stroke-width:0.1"
         id="path442" />
      <path
         d="m 2121.026,380.00295 c 0,0 14.23,-43.57 20.32,-45.71 1.62,-0.57 10.73,-2.88 12.19,-6.36 0.04,-0.09 0.07,-0.19 0.09,-0.31 0.48,-2.21 -1.38,-4.24 -3.63,-4.24 h -28.91 c 0,0 -4.1,19.57 -5.72,28.17 0,0 -8.59,21.02 -7.64,22.93 0.95,1.91 13.3,5.52 13.3,5.52"
         style="fill:#45258f;fill-opacity:1;fill-rule:nonzero;stroke:none;stroke-width:0.1"
         id="path444" />
      <path
         d="m 2226.726,323.45295 4.65,15.28 c 0,0 10.14,-4.3 15.15,-3.58 5.01,0.71 14.79,3.58 14.79,3.58 20,-6.68 36.38,-9.91 33.4,-15.28 v 0 h -67.99"
         style="fill:#45258f;fill-opacity:1;fill-rule:nonzero;stroke:none;stroke-width:0.1"
         id="path446" />
      <path
         d="m 2416.296,741.58295 c 3.72,0.1 6.67,1.73 8.83,5.33 -0.79,-5.02 -5.56,-7.11 -8.83,-5.33"
         style="fill:#fe875e;fill-opacity:1;fill-rule:nonzero;stroke:none;stroke-width:0.1"
         id="path448" />
      <path
         d="m 2228.966,840.85295 c 0,0 -24.17,-2.55 -32.26,-5.38 -6.75,-2.37 -15.89,-24.44 -15.89,-24.44 0,0 36.63,-105.9 35.19,-124.84 -1.44,-18.93 -5.51,-46.98 -5.51,-46.98 0,0 72.14,-4.55 99.47,6.24 0,0 -8.63,42.9 -8.63,54.16 0,11.27 -4.85,123.87 -8.3,129.76 -3.45,5.9 -10.4,9.26 -23.58,12.13 -13.18,2.88 -40.49,-0.65 -40.49,-0.65"
         style="fill:#3797db;fill-opacity:1;fill-rule:nonzero;stroke:none;stroke-width:0.1"
         id="path450" />
      <path
         d="m 2233.786,872.37295 -4.82,-31.52 c 0,0 14.48,-16.69 24.97,-13.44 8.8,2.74 6.49,15.11 6.49,15.11 0,0 -4.8,17.83 -3.36,26.75 1.44,8.92 -23.28,3.1 -23.28,3.1"
         style="fill:#efac7f;fill-opacity:1;fill-rule:nonzero;stroke:none;stroke-width:0.1"
         id="path452" />
      <path
         d="m 2257.066,869.27295 c 1.44,8.92 -23.28,3.1 -23.28,3.1 l -0.4,-2.62 c 0.72,-1.75 1.6,-3.24 2.68,-4.39 5.52,-5.9 14.15,-9.45 21.62,-9.72 -0.75,4.81 -1.21,9.97 -0.62,13.63"
         style="fill:#d19369;fill-opacity:1;fill-rule:nonzero;stroke:none;stroke-width:0.1"
         id="path454" />
      <path
         d="m 2229.726,916.95295 c -0.7,0.25 -5.6,-35.89 3.7,-45.84 9.3,-9.94 27.43,-13.2 33.93,-5.37 7.19,8.67 6.83,47.51 -7.63,57.74 -14.47,10.23 -30,-6.53 -30,-6.53"
         style="fill:#efac7f;fill-opacity:1;fill-rule:nonzero;stroke:none;stroke-width:0.1"
         id="path456" />
      <path
         d="m 2254.216,942.82295 c -11.18,-2.27 -18.42,-9.05 -21.08,-11.95 -5.08,-0.59 -11.98,-3.38 -19.1,-15.1 -8.76,-14.41 -2.29,-30.37 7.91,-38.2 10.19,-7.84 10.06,-16.86 10.06,-16.86 l 1.6,4.66 c 1.19,3.54 1.68,7.3 1.28,11.02 -0.24,2.23 -0.72,4.64 -1.65,6.63 -2.45,5.23 5.27,8.7 7.44,13.05 1.66,3.35 1.74,11.02 4.37,16.56 l 3.14,4.23 c 0,0 7.24,5.59 14.32,4.01 7.07,-1.57 6.06,24.85 -8.29,21.95"
         style="fill:#282828;fill-opacity:1;fill-rule:nonzero;stroke:none;stroke-width:0.1"
         id="path458" />
      <path
         d="m 2240.196,889.64295 c 0.07,-4.41 -1.95,-8.02 -4.51,-8.06 -2.56,-0.04 -4.7,3.5 -4.77,7.91 -0.08,4.4 1.94,8.01 4.51,8.06 2.56,0.04 4.7,-3.5 4.77,-7.91"
         style="fill:#efac7f;fill-opacity:1;fill-rule:nonzero;stroke:none;stroke-width:0.1"
         id="path460" />
      <path
         d="m 2272.896,687.88295 h 145.61 v 126.31 h -145.61 v -126.31"
         style="fill:#96a65f;fill-opacity:1;fill-rule:nonzero;stroke:none;stroke-width:0.1"
         id="path462" />
      <path
         d="m 2363.506,687.88295 h 126.31 v 126.31 h -126.31 v -126.31"
         style="fill:#9ed16f;fill-opacity:1;fill-rule:nonzero;stroke:none;stroke-width:0.1"
         id="path464" />
      <path
         d="m 2361.036,690.56295 c -7.44,2.16 -92.58,23.97 -95.79,26.08 -3.21,2.1 -55.8,51.24 -55.8,51.24 l 30.12,15.94 47.08,-46.37 c 3.22,-1.35 63.52,-24.29 63.52,-24.29 0,0 18.43,-7.52 20.04,-7.2 1.35,0.26 2.5,1.48 13.01,3.82 3.03,0.67 7.34,-0.61 7.34,-0.61 0,0 5.29,-1.61 5.28,-2.89 0,-1.28 -1.33,-2.25 -2.4,-2.32 -1.07,-0.06 -3.09,0.82 -4.16,0.76 -1.07,-0.06 -3.3,-2.44 -3.72,-3.53 -0.25,-0.66 14.66,-11.56 15.39,-13.04 0.35,-0.35 18.23,0.87 17.5,-0.27 -0.01,-1.84 -2.14,-1.3 -2.15,-1.56 -0.27,-4.9 -25.61,-8.54 -27.34,-8.05 -2.9,0.82 -27.92,12.29 -27.92,12.29"
         style="fill:#efac7f;fill-opacity:1;fill-rule:nonzero;stroke:none;stroke-width:0.1"
         id="path466" />
      <path
         d="m 2225.656,745.26295 34.51,22.59 c 0,0 -39.97,60.61 -53.61,66.87 -9.39,4.31 -21.09,-2.19 -25.67,-18.12 -4.97,-17.3 44.77,-71.34 44.77,-71.34"
         style="fill:#3b77be;fill-opacity:1;fill-rule:nonzero;stroke:none;stroke-width:0.1"
         id="path468" />
      <path
         d="m 2477.196,785.65295 -5.85,-5.61 v 32.77 c 0,3.4 -2.76,6.15 -6.16,6.15 h -51.17 c -3.4,0 -6.15,-2.75 -6.15,-6.15 v -38.09 l -6.31,10.93 -21.61,-6.31 c 0,0 17.34,-33 27.92,-38.39 14.14,-7.2 49.25,-7.04 63.48,0 8.65,4.29 23.41,30.71 23.41,30.71 l -17.56,13.99"
         style="fill:#7772d6;fill-opacity:1;fill-rule:nonzero;stroke:none;stroke-width:0.1"
         id="path470" />
      <path
         d="m 2457.726,737.02295 c -1.01,11.34 -8.64,20.15 -17.9,20.15 -9.29,0 -16.95,-8.88 -17.9,-20.27 11.07,-1.77 24.77,-1.71 35.8,0.12"
         style="fill:#45258f;fill-opacity:1;fill-rule:nonzero;stroke:none;stroke-width:0.1"
         id="path472" />
      <path
         d="m 2152.936,1657.383 c -5.21,-8.87 -14.53,-8.51 -24.53,-10.99 -6.71,-1.67 -10.83,-12.71 -10.19,-21.06 1.63,-21.15 -14.95,-17.56 -28.29,-26.32 -31.95,-20.97 -11.34,-75.7 23.57,-79.23 7,-0.7 14.96,0.43 21.15,3.92 4.97,2.79 8.5,6.36 14.12,8.35 11.77,4.17 24.88,5.61 34.28,14.66 13.46,12.95 2.31,19.27 5.78,28.69 3.47,9.42 18.44,4.7 21.28,24.23 3.09,21.12 -0.29,39.32 -8.08,49.81 -12.89,17.36 -35.54,18.54 -43.79,13.27 -2.46,-1.57 -4.16,-3.4 -5.3,-5.33"
         style="fill:#5e2e0d;fill-opacity:1;fill-rule:nonzero;stroke:none;stroke-width:0.1"
         id="path474" />
      <path
         d="m 2299.586,1617.753 c -1.24,2.62 -12.29,-5.14 -14.74,-3.66 -2.45,1.47 9.9,13.92 8.64,16.1 -2.32,4.01 -14.36,-12.8 -15.55,-11.03 -1.18,1.78 10.38,19.73 6.25,20.72 -4.12,0.98 -10.05,-19.87 -12.17,-18.52 -2.11,1.34 7.26,18.89 3.26,22.47 -2.14,1.91 -12.21,-32.03 -15.87,-33.44 -3.65,-1.41 -7.76,13.41 -11.2,12.82 -3.44,-0.58 11.27,-27.25 10.55,-29.33 -0.71,-2.08 -14.19,-45.63 -22.15,-58.78 -4.79,2.28 -9.45,4.59 -13.89,6.83 -1.79,-10.1 -1.99,-20.73 -4.33,-30.65 15.43,-6.78 29.2,-11.7 33.69,-10.05 13.65,5.02 20.38,71.29 22.57,83.65 2.2,12.38 8.03,14.8 11.36,21.3 3.32,6.5 14.82,8.95 13.58,11.57"
         style="fill:#efac7f;fill-opacity:1;fill-rule:nonzero;stroke:none;stroke-width:0.1"
         id="path476" />
      <path
         d="m 2185.446,1561.953 -22.85,-23.05 c 0,0 30.18,-16.37 55.79,-27.62 2.34,9.92 2.54,20.55 4.33,30.65 -21.16,10.68 -37.27,20.02 -37.27,20.02"
         style="fill:#7772d6;fill-opacity:1;fill-rule:nonzero;stroke:none;stroke-width:0.1"
         id="path478" />
      <path
         d="m 2327.966,1306.013 c 10.02,-11.83 17.29,-24.14 18.08,-25.67 0.38,-0.73 0.53,-4.94 0.91,-5.71 15.59,-10.26 32.12,-7.42 45.68,-3.19 -8.93,3.87 -21.36,8.34 -22.53,10.21 -1.85,2.98 -10.36,13.78 -19.13,33.18 -6.99,-6.95 -13.58,-6.15 -23.01,-8.82"
         style="fill:#efac7f;fill-opacity:1;fill-rule:nonzero;stroke:none;stroke-width:0.1"
         id="path480" />
      <path
         d="m 2346.206,1279.783 c -1.36,-6.23 -0.81,-18.87 0.42,-19.15 1.48,-0.33 53.84,-8.06 60.54,-1.34 4.03,4.04 -3.58,7.15 -14.53,12.15 -13.56,-4.23 -45.92,4.12 -46.43,8.34"
         style="fill:#3797db;fill-opacity:1;fill-rule:nonzero;stroke:none;stroke-width:0.1"
         id="path482" />
      <path
         d="m 2332.406,1258.783 c 10.02,-11.83 17.29,-24.14 18.09,-25.67 0.38,-0.73 0.52,-4.95 0.9,-5.71 15.6,-10.26 32.12,-7.42 45.68,-3.19 -8.92,3.86 -21.36,8.34 -22.52,10.21 -1.86,2.98 -10.37,13.78 -19.13,33.18 -6.99,-6.95 -13.58,-6.15 -23.02,-8.82"
         style="fill:#efac7f;fill-opacity:1;fill-rule:nonzero;stroke:none;stroke-width:0.1"
         id="path484" />
      <path
         d="m 2350.656,1232.553 c -1.36,-6.23 -0.82,-18.87 0.42,-19.15 1.47,-0.33 53.83,-8.06 60.54,-1.34 4.03,4.04 -3.58,7.15 -14.54,12.15 -13.56,-4.23 -45.92,4.12 -46.42,8.34"
         style="fill:#3797db;fill-opacity:1;fill-rule:nonzero;stroke:none;stroke-width:0.1"
         id="path486" />
      <path
         d="m 2358.006,1306.563 -27.23,-9.43 -146.57,121.59 c 0,0 35.77,0.46 99.87,-6.09 19.17,-1.96 73.93,-106.07 73.93,-106.07"
         style="fill:#96a65f;fill-opacity:1;fill-rule:nonzero;stroke:none;stroke-width:0.1"
         id="path488" />
      <path
         d="m 2129.176,1428.813 c 0,0 -3.91,-10.28 -4.4,-15.89 -1.6,-18.13 7.78,-41.17 17.87,-44.7 10.36,-3.61 73.97,-21.36 112.29,-15.96 l 83.05,-110.7 27.69,12.15 -64.87,113.91 c 0,0 -12.5,19.61 -22.78,24.22 -10.28,4.62 -93.82,26.88 -93.82,26.88 l -12.93,18.81 -42.1,-8.72"
         style="fill:#9ed16f;fill-opacity:1;fill-rule:nonzero;stroke:none;stroke-width:0.1"
         id="path490" />
      <path
         d="m 2196.706,1543.583 c -4.59,8.49 -9.32,15.23 -9.32,15.23 -4.76,8.5 -17.06,12.79 -17.06,12.79 0,0 -4.11,-0.08 -8.84,-0.32 -0.29,-0.78 -0.59,-1.34 -0.89,-1.57 -1.78,-1.34 -11.95,0.39 -18.53,-4.09 -22.03,-18.95 -15.93,-110.79 -14.2,-139.8 l 53.52,-1.97 c 0,0 5.12,63.75 18.75,79.79 9.49,11.16 3.38,27.35 -3.43,39.94"
         style="fill:#7772d6;fill-opacity:1;fill-rule:nonzero;stroke:none;stroke-width:0.1"
         id="path492" />
      <path
         d="m 2166.466,1602.673 c 0,0 -3.69,-26.43 -6.26,-32.85 -2.58,-6.42 14.16,-20.16 28.09,-24.32 13.93,-4.17 -4.26,14.18 -3.68,21.05 0.57,6.86 3.11,39.37 3.11,39.37 l -21.26,-3.25"
         style="fill:#efac7f;fill-opacity:1;fill-rule:nonzero;stroke:none;stroke-width:0.1"
         id="path494" />
      <path
         d="m 2187.016,1596.603 c 0.41,5.37 0.71,9.32 0.71,9.32 l -21.26,-3.25 c 0,0 -0.54,-3.1 -1.13,-7.49 8.62,-5.02 16.37,-3.43 21.68,1.42"
         style="fill:#d19369;fill-opacity:1;fill-rule:nonzero;stroke:none;stroke-width:0.1"
         id="path496" />
      <path
         d="m 2173.136,1650.953 c 0,0 -8.38,-1.9 -13.56,-9.82 -5.17,-7.92 -8.72,-31.24 8.32,-42.13 17.04,-10.88 30.29,4.51 30.51,19.53 0.22,15.02 -2.99,35.06 -25.27,32.42"
         style="fill:#efac7f;fill-opacity:1;fill-rule:nonzero;stroke:none;stroke-width:0.1"
         id="path498" />
      <path
         d="m 2202.306,1623.233 c -1.45,-3.62 -4.34,-5.87 -6.44,-5.02 -2.11,0.85 -2.63,4.48 -1.18,8.1 1.46,3.62 4.34,5.87 6.44,5.02 2.11,-0.85 2.63,-4.47 1.18,-8.1"
         style="fill:#efac7f;fill-opacity:1;fill-rule:nonzero;stroke:none;stroke-width:0.1"
         id="path500" />
      <path
         d="m 2159.306,1620.253 c 1.24,-3.9 0.11,-7.74 -2.52,-8.58 -2.63,-0.84 -5.77,1.64 -7,5.55 -1.24,3.9 -0.11,7.75 2.52,8.59 2.63,0.83 5.77,-1.65 7,-5.56"
         style="fill:#efac7f;fill-opacity:1;fill-rule:nonzero;stroke:none;stroke-width:0.1"
         id="path502" />
      <path
         d="m 2229.886,1533.553 c 0,0 5.73,-0.15 7.36,0 9.4,0.9 5.49,-12.98 5.49,-12.98 0,0 -4.58,4.5 -6.42,4.5 -1.84,0 -4.4,-0.5 -4.4,-0.5 l -2.03,8.98"
         style="fill:#45258f;fill-opacity:1;fill-rule:nonzero;stroke:none;stroke-width:0.1"
         id="path504" />
      <path
         d="m 2261.706,1440.803 c 0,0 3.87,-6.02 8.21,-3.31 4.34,2.7 11.85,7.94 13.25,4 1.4,-3.95 1.12,-7.24 -0.4,-8.03 -1.51,-0.79 -12.73,-6.89 -18.8,-7.3 -6.08,-0.41 -11.12,5.35 -11.12,5.35 l 8.86,9.29"
         style="fill:#3b77be;fill-opacity:1;fill-rule:nonzero;stroke:none;stroke-width:0.1"
         id="path506" />
      <path
         d="m 2270.776,1427.193 c -0.19,4.76 -1.13,10.03 -3.73,14.52 -6.65,11.49 -34.71,42.47 -38.88,44.88 -4.16,2.42 -1.17,11.74 -1.17,11.74 l -16.64,8.98 -8.67,4.69 c 0,0 -19.65,-29.99 -21.15,-32.82 -1.5,-2.83 1.16,-12.1 -0.83,-17.81 -1.95,-5.69 0.08,-36.65 -2.74,-40.05 -2.2,-2.2 -4.25,-2.51 -4.93,-3.84 -0.32,-0.6 -0.71,-1.6 0.1,-2.63 2.26,-2.9 13.77,-0.47 13.77,-0.47 0.09,0.18 4.83,6.85 4.09,10.81 -0.74,3.84 1.62,26.93 3.2,26.93 1.4,0 8.04,-10.26 10.69,-12.22 v -0.01 c 0.3,-0.21 0.52,-0.34 0.72,-0.34 1.91,0 14.2,-2.7 16.91,-5.41 0.72,-0.73 1,-2.67 1.02,-5.11 0.04,-1.63 -0.05,-3.47 -0.19,-5.34 -0.27,-3.43 -0.75,-6.95 -1.08,-9.27 2.92,-0.02 5.85,-0.03 8.77,-0.01 2.41,4.34 7.48,7.33 13.35,7.33 5.53,0 10.35,-2.65 12.91,-6.58 4.9,0.26 6.8,-2.13 11.01,-1.73 0.23,1.46 3.54,11.88 3.47,13.76"
         style="fill:#3797db;fill-opacity:1;fill-rule:nonzero;stroke:none;stroke-width:0.1"
         id="path508" />
      <path
         d="m 2231.556,1532.213 c -1.84,1.77 -4.44,2.54 -6.97,2.14 -1.37,-0.22 -3.36,-0.34 -6.08,-0.09 -6.11,0.55 -12.38,0.05 -16.32,-3.89 -3.94,-3.94 -4.44,-18 0,-24.6 4.44,-6.6 16.99,-8.27 18.1,-11.26 1.11,-3 11.99,-4.45 13.54,-0.78 0,0 1.18,-0.79 2.89,-0.31 4.07,1.15 5.55,5.19 4.11,9.53 -1.44,4.32 -7.55,13.21 -6.44,21.2 0.51,3.71 -1.03,6.32 -2.83,8.06"
         style="fill:#3b77be;fill-opacity:1;fill-rule:nonzero;stroke:none;stroke-width:0.1"
         id="path510" />
      <path
         d="m 2228.996,1505.163 c -0.71,-0.73 -0.73,-1.89 -0.06,-2.66 1.3,-1.51 3.53,-3.94 5.14,-4.86 2.42,-1.39 4.72,4.48 4.72,7.11 0,2.51 -5.54,4.78 -9.8,0.41"
         style="fill:#45258f;fill-opacity:1;fill-rule:nonzero;stroke:none;stroke-width:0.1"
         id="path512" />
      <path
         d="m 2226.506,1463.023 c -0.05,1.27 -1.13,2.26 -2.41,2.18 -0.01,0 -0.03,0 -0.04,0 -6.48,-0.39 -10.93,-6.29 -10.09,-12.72 0.05,-0.35 0.05,-0.67 -0.01,-0.94 -0.25,-1.14 -2.16,-4.95 -4.21,-8.84 3.88,-0.97 7.76,-1.94 11.64,-2.91 2.85,4.93 5.67,9.53 5.67,9.53 l -0.55,13.7"
         style="fill:#3b77be;fill-opacity:1;fill-rule:nonzero;stroke:none;stroke-width:0.1"
         id="path514" />
      <path
         d="m 2204.406,1432.883 c 0,0 -4.4,-13.2 -5.66,-18.24 3.55,-2.04 5.7,1.97 13.76,-0.25 0.22,1.59 3.06,11.38 3.06,13.77 0,1.18 3.58,6.68 6.42,11.54 0.21,0.36 0.03,0.83 -0.38,0.94 -3.52,0.98 -7.99,2.79 -11.51,3.77 -0.45,0.12 -0.92,-0.08 -1.13,-0.49 -2.42,-4.79 -4.56,-11.04 -4.56,-11.04"
         style="fill:#3b77be;fill-opacity:1;fill-rule:nonzero;stroke:none;stroke-width:0.1"
         id="path516" />
      <path
         d="m 2195.476,1415.933 c 0.88,1.89 3.44,4.1 7.22,4.1 3.78,0 9.81,-5.64 9.81,-5.64 0,0 -1.79,-1.75 -6.71,-1.75 -4.93,0 -12.02,-0.38 -10.32,3.29"
         style="fill:#3b77be;fill-opacity:1;fill-rule:nonzero;stroke:none;stroke-width:0.1"
         id="path518" />
      <path
         d="m 2217.706,1416.733 c 0.87,1.88 3.44,4.1 7.22,4.1 1.42,0 3.15,-0.79 4.77,-1.79 2.57,-1.58 1.49,-5.58 -1.53,-5.6 -0.05,0 -0.1,0 -0.14,0 -4.93,0 -12.02,-0.38 -10.32,3.29"
         style="fill:#3b77be;fill-opacity:1;fill-rule:nonzero;stroke:none;stroke-width:0.1"
         id="path520" />
      <path
         d="m 2253.166,1416.733 c 1.05,1.88 4.14,4.1 8.69,4.1 1.7,0 3.79,-0.79 5.73,-1.79 3.1,-1.58 1.8,-5.58 -1.83,-5.6 -0.06,0 -0.12,0 -0.18,0 -5.93,0 -14.46,-0.38 -12.41,3.29"
         style="fill:#3b77be;fill-opacity:1;fill-rule:nonzero;stroke:none;stroke-width:0.1"
         id="path522" />
      <path
         d="m 2215.146,1529.313 c -1.78,1.79 -0.67,3.89 0.31,5.12 -5.08,0.12 -9.98,-0.78 -13.27,-4.06 -3.94,-3.94 -4.44,-18 0,-24.6 3.99,-5.93 14.51,-7.87 17.42,-10.38 3.01,5.13 -1.6,9.44 -2.68,11.86 -1.08,2.41 5.41,8.49 6.16,13.32 0.75,4.83 -5.22,6.03 -7.94,8.74"
         style="fill:#45258f;fill-opacity:1;fill-rule:nonzero;stroke:none;stroke-width:0.1"
         id="path524" />
      <path
         d="m 2206.606,1533.173 c 0,0 -3.94,-1.36 -8.89,0.39 -4.94,1.75 -9.85,-7.08 -9.85,-7.08 0,0 4.58,-9.91 8.24,-12.32 3.67,-2.42 10.5,19.01 10.5,19.01"
         style="fill:#3b77be;fill-opacity:1;fill-rule:nonzero;stroke:none;stroke-width:0.1"
         id="path526" />
      <path
         d="m 2269.406,1448.873 c 0,2.2 -6.74,8.54 -9.97,7.51 -3.14,-0.99 -15.88,-8.98 -15.88,-8.98 l -56.33,13.24 c 0,0 -14.22,32.42 -15.61,60.27 -11.75,-1.59 -19.76,-4.5 -29.97,-10.19 4.92,-26.64 16.9,-69.81 30.13,-77.92 5.57,-3.41 72.06,4.08 72.06,4.08 0,0 13.82,-1.93 17.26,-0.98 14.1,3.89 8.31,8.54 8.31,12.97"
         style="fill:#efac7f;fill-opacity:1;fill-rule:nonzero;stroke:none;stroke-width:0.1"
         id="path528" />
      <path
         d="m 2171.956,1550.683 c -1.74,8.4 -3.77,16.84 -12.86,19.51 -5.63,1.65 -11.95,0.07 -16.46,-3.62 -5.35,-4.39 -6.85,-11.43 -6.82,-18.09 0.05,-15.13 1.08,-30.82 3.84,-45.72 10.21,5.69 25.09,5.04 36.84,6.64 1.09,13.46 -2.26,30.32 -4.54,41.28"
         style="fill:#45258f;fill-opacity:1;fill-rule:nonzero;stroke:none;stroke-width:0.1"
         id="path530" />
      <path
         d="m 1715.317,1598.023 c -5.961,-31.65 -24.993,-98.22 -56.022,-97.18 -1.51,43.43 -3.64,80.74 -6.619,92.53 -0.679,2.44 -1.507,4.81 -2.461,7.09 19.327,-1.68 30.938,27.78 35.387,48.54 -3.961,-13.17 -12.942,-34.27 -24.707,-41.32 -6.678,-4.03 -11.577,-2 -13.441,-1.43 -11.218,20.89 -32.412,34.87 -42.645,47.3 -8.094,9.96 -2.902,49.76 -0.902,62.38 -2.844,-14.65 -5.881,-36.1 -4.606,-51.06 1.581,-16.88 10.287,-17.95 30.232,-40.61 15.974,-17.87 21.549,-27.52 22.109,-96.01 -1.218,-0.26 -2.766,-0.5 -4.417,-0.57 -16.352,-0.3 -31.388,15.58 -39.716,29.48 6.579,-12.64 18.246,-26.95 31.932,-31.29 2.501,-0.77 5.12,-1.24 7.779,-1.34 1.45,-0.03 3.028,0.08 4.446,0.25 0.355,-6.01 2.192,-123.69 0.565,-199.72 4.821,-0.06 3.949,2.2 8.68,1.82 -0.185,20.6 0.864,97.6 -1.322,165.18 36.193,1.47 51.386,68.43 55.728,105.96"
         style="fill:#7772d6;fill-opacity:1;fill-rule:nonzero;stroke:none;stroke-width:0.1"
         id="path532" />
      <path
         d="m 1582.596,1701.913 c 7.38,-5.91 18.374,-4.46 18.374,-4.46 l -26.723,21.43 c 0,0 0.969,-11.05 8.349,-16.97"
         style="fill:#96a65f;fill-opacity:1;fill-rule:nonzero;stroke:none;stroke-width:0.1"
         id="path534" />
      <path
         d="m 1574.247,1718.883 26.723,-21.43 c 0,0 -0.968,11.05 -8.348,16.97 -7.38,5.91 -18.375,4.46 -18.375,4.46"
         style="fill:#9ed16f;fill-opacity:1;fill-rule:nonzero;stroke:none;stroke-width:0.1"
         id="path536" />
      <path
         d="m 1706.725,1505.863 c 9.451,0.36 16.811,8.66 16.811,8.66 l -34.227,-1.29 c 0,0 7.964,-7.72 17.416,-7.37"
         style="fill:#96a65f;fill-opacity:1;fill-rule:nonzero;stroke:none;stroke-width:0.1"
         id="path538" />
      <path
         d="m 1689.309,1513.233 34.227,1.29 c 0,0 -7.964,7.72 -17.416,7.36 -9.451,-0.36 -16.811,-8.65 -16.811,-8.65"
         style="fill:#9ed16f;fill-opacity:1;fill-rule:nonzero;stroke:none;stroke-width:0.1"
         id="path540" />
      <path
         d="m 1716.635,1540.293 c 6.461,4.17 8.163,13.03 8.163,13.03 l -23.395,-15.11 c 0,0 8.772,-2.09 15.232,2.08"
         style="fill:#96a65f;fill-opacity:1;fill-rule:nonzero;stroke:none;stroke-width:0.1"
         id="path542" />
      <path
         d="m 1701.403,1538.213 23.395,15.11 c 0,0 -8.772,2.09 -15.232,-2.08 -6.461,-4.17 -8.163,-13.03 -8.163,-13.03"
         style="fill:#9ed16f;fill-opacity:1;fill-rule:nonzero;stroke:none;stroke-width:0.1"
         id="path544" />
      <path
         d="m 1683.195,1541.583 c 2.664,-7.21 10.936,-10.8 10.936,-10.8 l -9.647,26.12 c 0,0 -3.952,-8.1 -1.289,-15.32"
         style="fill:#96a65f;fill-opacity:1;fill-rule:nonzero;stroke:none;stroke-width:0.1"
         id="path546" />
      <path
         d="m 1684.484,1556.903 9.647,-26.12 c 0,0 3.954,8.1 1.29,15.32 -2.665,7.21 -10.937,10.8 -10.937,10.8"
         style="fill:#9ed16f;fill-opacity:1;fill-rule:nonzero;stroke:none;stroke-width:0.1"
         id="path548" />
      <path
         d="m 1607.352,1682.053 c -5.779,-4.02 -7.054,-12.18 -7.054,-12.18 l 20.927,14.57 c 0,0 -8.096,1.63 -13.873,-2.39"
         style="fill:#96a65f;fill-opacity:1;fill-rule:nonzero;stroke:none;stroke-width:0.1"
         id="path550" />
      <path
         d="m 1621.225,1684.443 -20.927,-14.57 c 0,0 8.094,-1.64 13.873,2.39 5.779,4.02 7.054,12.18 7.054,12.18"
         style="fill:#9ed16f;fill-opacity:1;fill-rule:nonzero;stroke:none;stroke-width:0.1"
         id="path552" />
      <path
         d="m 1687.274,1623.673 c -7.021,0.54 -13.175,-4.96 -13.175,-4.96 l 25.424,-1.98 c 0,0 -5.228,6.39 -12.249,6.94"
         style="fill:#96a65f;fill-opacity:1;fill-rule:nonzero;stroke:none;stroke-width:0.1"
         id="path554" />
      <path
         d="m 1699.523,1616.733 -25.424,1.98 c 0,0 5.228,-6.39 12.248,-6.94 7.021,-0.55 13.176,4.96 13.176,4.96"
         style="fill:#9ed16f;fill-opacity:1;fill-rule:nonzero;stroke:none;stroke-width:0.1"
         id="path556" />
      <path
         d="m 1612.177,1543.643 c -7.022,0.54 -13.176,-4.96 -13.176,-4.96 l 25.424,-1.98 c 0,0 -5.228,6.39 -12.248,6.94"
         style="fill:#96a65f;fill-opacity:1;fill-rule:nonzero;stroke:none;stroke-width:0.1"
         id="path558" />
      <path
         d="m 1624.425,1536.703 -25.424,1.98 c 0,0 5.229,-6.39 12.249,-6.94 7.02,-0.55 13.175,4.96 13.175,4.96"
         style="fill:#9ed16f;fill-opacity:1;fill-rule:nonzero;stroke:none;stroke-width:0.1"
         id="path560" />
      <path
         d="m 1625.367,1550.753 c -2.561,6.56 -10.195,9.7 -10.195,9.7 l 9.276,-23.75 c 0,0 3.481,7.49 0.919,14.05"
         style="fill:#96a65f;fill-opacity:1;fill-rule:nonzero;stroke:none;stroke-width:0.1"
         id="path562" />
      <path
         d="m 1624.448,1536.703 -9.276,23.75 c 0,0 -3.481,-7.49 -0.92,-14.04 2.562,-6.56 10.196,-9.71 10.196,-9.71"
         style="fill:#9ed16f;fill-opacity:1;fill-rule:nonzero;stroke:none;stroke-width:0.1"
         id="path564" />
      <path
         d="m 1675.565,1632.673 c -1.573,4.21 -6.418,6.3 -6.418,6.3 l 5.693,-15.26 c 0,0 2.297,4.74 0.725,8.96"
         style="fill:#96a65f;fill-opacity:1;fill-rule:nonzero;stroke:none;stroke-width:0.1"
         id="path566" />
      <path
         d="m 1674.84,1623.713 -5.693,15.26 c 0,0 -2.296,-4.75 -0.724,-8.97 1.572,-4.21 6.417,-6.29 6.417,-6.29"
         style="fill:#9ed16f;fill-opacity:1;fill-rule:nonzero;stroke:none;stroke-width:0.1"
         id="path568" />
      <path
         d="m 1591.177,1666.693 c -6.581,2.51 -14.038,-1.04 -14.038,-1.04 l 23.831,-9.07 c 0,0 -3.212,7.61 -9.793,10.11"
         style="fill:#96a65f;fill-opacity:1;fill-rule:nonzero;stroke:none;stroke-width:0.1"
         id="path570" />
      <path
         d="m 1600.97,1656.583 -23.831,9.07 c 0,0 3.211,-7.6 9.793,-10.11 6.581,-2.5 14.038,1.04 14.038,1.04"
         style="fill:#9ed16f;fill-opacity:1;fill-rule:nonzero;stroke:none;stroke-width:0.1"
         id="path572" />
      <path
         d="m 1675.042,1326.633 h 3.717 v 145.84 c 0,1.02 -0.832,1.86 -1.859,1.86 v 0 c -1.026,0 -1.858,-0.84 -1.858,-1.86 v -145.84"
         style="fill:#96a65f;fill-opacity:1;fill-rule:nonzero;stroke:none;stroke-width:0.1"
         id="path574" />
      <path
         d="m 1631.759,1321.403 c 0,0 17.102,20.56 30.867,14.7 13.766,-5.85 16.017,4.72 23.221,1.24 7.203,-3.49 16.207,-12.28 16.207,-12.28 l -70.295,-3.66"
         style="fill:#3b77be;fill-opacity:1;fill-rule:nonzero;stroke:none;stroke-width:0.1"
         id="path576" />
      <path
         d="m 1664.786,1431.263 c -3.922,0 -8.455,0.9 -13.372,3.49 -0.44,0.23 -0.609,0.77 -0.376,1.21 0.233,0.45 0.773,0.61 1.217,0.38 14.81,-7.81 25.493,0.5 25.941,0.86 0.388,0.31 0.953,0.25 1.265,-0.14 0.311,-0.39 0.25,-0.95 -0.137,-1.26 -0.082,-0.07 -5.783,-4.54 -14.538,-4.54"
         style="fill:#3797db;fill-opacity:1;fill-rule:nonzero;stroke:none;stroke-width:0.1"
         id="path578" />
      <path
         d="m 1643.591,1450.143 c -0.744,0 -1.546,-0.35 -2.426,-1.06 -0.518,-0.42 -0.74,-0.88 -0.699,-1.46 0.207,-2.86 5.986,-7.19 9.596,-9.54 -0.794,4.08 -2.665,10.73 -5.604,11.89 -0.281,0.11 -0.57,0.17 -0.867,0.17 z m 8.841,-15.61 -1.605,0.95 c -1.208,0.71 -11.801,7.1 -12.156,12.01 -0.084,1.17 0.388,2.21 1.364,2.99 1.756,1.41 3.467,1.81 5.087,1.16 5.077,-2.01 6.866,-13.91 7.053,-15.26 l 0.257,-1.85"
         style="fill:#3797db;fill-opacity:1;fill-rule:nonzero;stroke:none;stroke-width:0.1"
         id="path580" />
      <path
         d="m 1647.671,1432.503 c -2.849,-1.21 -6.634,-3.2 -7.363,-5.18 -0.181,-0.49 -0.138,-0.93 0.136,-1.39 0.3,-0.5 0.547,-0.49 0.67,-0.49 1.546,0.02 4.402,3.65 6.557,7.06 z m -6.568,-8.86 c -0.641,0 -1.529,0.24 -2.203,1.37 -0.554,0.92 -0.65,1.93 -0.282,2.93 1.443,3.92 9.907,6.87 10.867,7.19 l 2.205,0.74 -1.132,-2.03 c -0.94,-1.69 -5.817,-10.14 -9.413,-10.2 -0.015,0 -0.028,0 -0.042,0"
         style="fill:#3797db;fill-opacity:1;fill-rule:nonzero;stroke:none;stroke-width:0.1"
         id="path582" />
      <path
         d="m 1653.232,1435.873 c 0,-0.85 -0.691,-1.54 -1.542,-1.54 -0.854,0 -1.544,0.69 -1.544,1.54 0,0.85 0.69,1.54 1.544,1.54 0.851,0 1.542,-0.69 1.542,-1.54"
         style="fill:#3797db;fill-opacity:1;fill-rule:nonzero;stroke:none;stroke-width:0.1"
         id="path584" />
      <path
         d="m 1044.935,816.10295 5.437,-4.63 6.609,3.05 5.729,-5.62 6.039,5.42 6.759,-6.07 6.176,4.3 7.455,-4.77 -1.802,-2.83 -5.574,3.57 -6.516,-4.55 -6.498,5.84 -6.14,-5.52 -6.323,6.21 -6.452,-2.97 -5.041,4.29 -3.829,-2.85 -1.993,2.7 5.964,4.43"
         style="fill:#9ed16f;fill-opacity:1;fill-rule:nonzero;stroke:none;stroke-width:0.1"
         id="path586" />
      <path
         d="m 1826.196,1673.433 -22.03,5.09 -5.82,-15.69 -21.92,4.27 -7.94,-14.32 -16.86,1.09 -0.08,-6.77 22.55,-1.46 7.53,13.57 22.8,-4.44 5.73,15.44 19.96,-4.62 -3.92,7.84"
         style="fill:#9ed16f;fill-opacity:1;fill-rule:nonzero;stroke:none;stroke-width:0.1"
         id="path588" />
      <path
         d="m 2451.986,1317.453 7.95,13.43 -6.55,14.16 c -0.75,1.62 0.68,3.39 2.41,3 l 15.23,-3.41 11.45,10.61 c 1.3,1.21 3.43,0.4 3.59,-1.37 l 1.47,-15.54 13.63,-7.61 c 1.55,-0.87 1.44,-3.14 -0.2,-3.84 l -14.32,-6.19 -3.03,-15.32 c -0.34,-1.74 -2.53,-2.34 -3.71,-1 l -10.32,11.71 -15.5,-1.86 c -1.76,-0.21 -3,1.69 -2.1,3.23"
         style="fill:#7772d6;fill-opacity:1;fill-rule:nonzero;stroke:none;stroke-width:0.1"
         id="path590" />
      <path
         d="m 1141.879,944.33295 c 0,0 2.462,6.95 10.716,9.43 7.359,2.22 14.189,-2.11 16.238,-8.92 2.371,-7.88 -1.736,-19.29 -17.244,-32.79 -20.385,2.7 -30.104,9.95 -32.476,17.84 -2.048,6.81 1.264,14.18 8.622,16.4 8.254,2.48 14.144,-1.96 14.144,-1.96"
         style="fill:#7772d6;fill-opacity:1;fill-rule:nonzero;stroke:none;stroke-width:0.1"
         id="path592" />
      <path
         d="m 1081.982,922.92295 c 7.497,0.99 13.473,2.16 19.292,3.6 1.918,0.47 5.386,0.72 6.309,2.69 0.48,1.03 0.332,2.1 -0.654,2.78 -1.805,1.25 -4.541,-0.09 -6.475,-0.57 -5.894,-1.45 -12.633,-2.81 -19.522,-3.79 -1.292,-0.18 -2.101,-1.68 -1.833,-2.88 0.304,-1.37 1.586,-2 2.883,-1.83 v 0"
         style="fill:#7772d6;fill-opacity:1;fill-rule:nonzero;stroke:none;stroke-width:0.1"
         id="path594" />
      <path
         d="m 1184.099,931.94295 c 2.832,0.64 5.65,1.34 8.471,2.03 2.699,0.66 6.004,0.97 8.334,2.51 1.72,1.14 1.282,3.69 -0.879,3.92 -2.791,0.29 -5.822,-0.95 -8.526,-1.62 -2.82,-0.69 -5.641,-1.39 -8.449,-2.13 -3,-0.79 -1.993,-5.41 1.049,-4.71 v 0"
         style="fill:#7772d6;fill-opacity:1;fill-rule:nonzero;stroke:none;stroke-width:0.1"
         id="path596" />
      <path
         d="m 1117.008,892.32295 c 2.096,6.81 5.963,9.69 8.705,12.77 1.464,1.64 -0.145,4.01 -2.219,3.15 -5.688,-2.37 -9.419,-8.89 -11.091,-14.52 -0.878,-2.97 3.691,-4.37 4.605,-1.4 v 0"
         style="fill:#7772d6;fill-opacity:1;fill-rule:nonzero;stroke:none;stroke-width:0.1"
         id="path598" />
      <path
         d="m 1153.155,885.32295 c -0.818,2.89 -1.067,5.85 -0.652,8.83 0.253,1.82 2.49,7.28 -1.036,7.34 -3.32,0.07 -3.757,-5.47 -3.977,-7.82 -0.293,-3.15 0.04,-6.37 0.93,-9.4 0.876,-2.98 5.589,-1.96 4.735,1.05 v 0"
         style="fill:#7772d6;fill-opacity:1;fill-rule:nonzero;stroke:none;stroke-width:0.1"
         id="path600" />
      <path
         d="m 1172.782,908.88295 c 1.846,-0.76 3.69,-1.51 5.534,-2.27 1.84,-0.76 3.742,-2.05 5.706,-1.13 1.105,0.52 1.276,1.79 0.889,2.81 -0.702,1.85 -3.478,2.37 -5.161,3.05 -1.849,0.75 -3.696,1.5 -5.545,2.24 -1.229,0.5 -2.703,-0.45 -3.061,-1.64 -0.414,-1.36 0.407,-2.55 1.638,-3.06 v 0"
         style="fill:#7772d6;fill-opacity:1;fill-rule:nonzero;stroke:none;stroke-width:0.1"
         id="path602" />
      <path
         d="m 1118.283,956.93295 c -9.481,12.97 -9.382,13.07 -10.879,13.97 -1.534,0.91 -3.605,-0.46 -3.176,-2.26 0.423,-1.78 0.384,-1.48 10.411,-15.09 0.797,-1.08 2.607,-0.97 3.512,-0.13 1.081,1 0.927,2.42 0.132,3.51 v 0"
         style="fill:#7772d6;fill-opacity:1;fill-rule:nonzero;stroke:none;stroke-width:0.1"
         id="path604" />
      <path
         d="m 1143.992,963.32295 c 0.359,2.62 0.435,5.25 0.23,7.89 -0.191,2.45 -0.153,6.24 -2.744,7.35 -0.557,0.24 -1.436,0.02 -1.837,-0.42 -1.676,-1.85 -0.481,-4.96 -0.315,-7.22 0.182,-2.47 0.099,-4.96 -0.141,-7.42 -0.126,-1.3 1.07,-2.45 2.314,-2.5 1.405,-0.05 2.316,1.03 2.493,2.32 v 0"
         style="fill:#7772d6;fill-opacity:1;fill-rule:nonzero;stroke:none;stroke-width:0.1"
         id="path606" />
      <path
         d="m 1180.905,969.74295 c 0.157,1.2 -0.979,2.03 -2.014,2.17 -2.131,0.3 -4.228,-2.2 -5.628,-3.56 -1.632,-1.58 -3.092,-3.32 -4.448,-5.14 -0.782,-1.05 -0.257,-2.69 0.788,-3.34 1.224,-0.76 2.518,-0.24 3.339,0.79 5.364,6.7 7.582,6.12 7.963,9.08"
         style="fill:#7772d6;fill-opacity:1;fill-rule:nonzero;stroke:none;stroke-width:0.1"
         id="path608" />
      <path
         d="m 2640.686,1137.343 c -2.35,-18.53 16.95,-33.24 34.11,-32.08 18.97,1.28 35.07,16.84 37.84,35.48 3.01,20.19 -9.12,36.32 -27.88,37.8 -18.26,1.44 -29.94,-14.81 -24.67,-31.21 3.78,-11.76 14.52,-16.15 19.93,-12.9 4.21,2.53 3.95,8.9 -1.15,10.03 -2.04,0.45 -4.15,-0.69 -5.24,-2.26 -4.46,1.77 -8.71,9.91 -5.83,18.69 3.69,11.21 17.87,11.85 26.67,6.62 11.21,-6.65 12.97,-20.99 8.86,-32.41 -4.32,-12 -16.1,-21.45 -28.92,-22.36 -14.53,-1.03 -27.32,10.11 -28.48,24.58 -0.27,3.42 -4.82,3.33 -5.24,0.02"
         style="fill:#7772d6;fill-opacity:1;fill-rule:nonzero;stroke:none;stroke-width:0.1"
         id="path610" />
      <path
         d="m 1152.543,738.10295 c -1.204,-9.49 8.68,-17.02 17.469,-16.43 9.718,0.66 17.96,8.63 19.382,18.18 1.538,10.33 -4.673,18.6 -14.281,19.36 -9.352,0.73 -15.335,-7.59 -12.633,-15.99 1.937,-6.02 7.434,-8.27 10.203,-6.61 2.159,1.3 2.028,4.57 -0.585,5.14 -1.048,0.23 -2.126,-0.35 -2.683,-1.16 -2.288,0.91 -4.465,5.08 -2.987,9.57 1.887,5.75 9.148,6.08 13.659,3.4 5.74,-3.41 6.642,-10.75 4.537,-16.61 -2.211,-6.14 -8.244,-10.98 -14.813,-11.44 -7.44,-0.53 -13.989,5.17 -14.583,12.58 -0.14,1.75 -2.47,1.71 -2.685,0.01"
         style="fill:#9ed16f;fill-opacity:1;fill-rule:nonzero;stroke:none;stroke-width:0.1"
         id="path612" />
      <path
         d="m 1197.972,1149.213 -0.141,17.77 -14.719,9.95 c -1.676,1.14 -1.324,3.7 0.596,4.34 l 16.857,5.63 4.921,17.07 c 0.561,1.95 3.109,2.41 4.311,0.78 l 10.56,-14.29 17.76,0.59 c 2.023,0.07 3.246,-2.21 2.069,-3.86 l -10.331,-14.46 6.055,-16.71 c 0.69,-1.9 -1.103,-3.77 -3.032,-3.16 l -16.944,5.36 -14.019,-10.92 c -1.597,-1.24 -3.927,-0.12 -3.943,1.91"
         style="fill:#3797db;fill-opacity:1;fill-rule:nonzero;stroke:none;stroke-width:0.1"
         id="path614" />
      <path
         d="m 2485.866,929.70295 c -0.57,8.18 5.6,15.28 13.78,15.85 8.18,0.56 15.27,-5.61 15.84,-13.79 0.57,-8.18 -5.6,-15.27 -13.78,-15.84 -8.18,-0.57 -15.27,5.61 -15.84,13.78"
         style="fill:#62bdf3;fill-opacity:1;fill-rule:nonzero;stroke:none;stroke-width:0.1"
         id="path616" />
      <path
         d="m 2511.046,887.78295 c -0.89,4.31 -1.42,8.92 -2.9,13.07 -1.26,3.57 -6.83,2.48 -6.55,-1.36 0.35,-4.69 1.82,-9.45 2.8,-14.05 0.4,-1.86 2.86,-2.73 4.49,-2.15 2,0.7 2.54,2.62 2.16,4.49 v 0"
         style="fill:#62bdf3;fill-opacity:1;fill-rule:nonzero;stroke:none;stroke-width:0.1"
         id="path618" />
      <path
         d="m 2536.486,906.17295 c -4.92,2.91 -9.21,6.5 -13.75,9.93 -3.55,2.68 -7.37,-1.93 -4.45,-5.12 4.19,-4.57 9.69,-8.15 15,-11.28 1.68,-0.99 4.01,-0.02 4.84,1.63 0.92,1.86 0.05,3.85 -1.64,4.84 v 0"
         style="fill:#62bdf3;fill-opacity:1;fill-rule:nonzero;stroke:none;stroke-width:0.1"
         id="path620" />
      <path
         d="m 2527.166,932.75295 c -1.11,-0.89 -1.33,-2.18 -0.65,-3.42 1.67,-3.02 5.89,-2.87 8.89,-2.77 3.13,0.11 6.26,0.74 9.22,1.75 4.38,1.5 2.01,8.29 -2.39,6.79 -8.58,-2.94 -11.83,0.25 -15.07,-2.35"
         style="fill:#62bdf3;fill-opacity:1;fill-rule:nonzero;stroke:none;stroke-width:0.1"
         id="path622" />
      <path
         d="m 2522.436,961.62295 c -4.32,-6.32 -7.85,-8.46 -7.3,-11.94 0.32,-2.03 1.93,-3 3.9,-2.56 2.32,0.53 3.58,2.99 4.97,4.72 1.34,1.65 2.65,3.32 3.84,5.08 1.08,1.6 1.23,3.67 -0.35,5.05 -1.33,1.16 -3.96,1.26 -5.06,-0.35 v 0"
         style="fill:#62bdf3;fill-opacity:1;fill-rule:nonzero;stroke:none;stroke-width:0.1"
         id="path624" />
      <path
         d="m 2505.606,962.72295 c -1.38,3.83 -1.69,5.22 -3.48,7 -1.55,1.55 -4.84,0.56 -5.06,-1.72 -0.25,-2.66 0.3,-3.65 1.75,-7.67 0.66,-1.83 2.75,-2.85 4.59,-2.2 1.83,0.64 2.86,2.75 2.2,4.59 v 0"
         style="fill:#62bdf3;fill-opacity:1;fill-rule:nonzero;stroke:none;stroke-width:0.1"
         id="path626" />
      <path
         d="m 2487.426,953.44295 c -6.24,4.74 -7.5,6.07 -9.95,5.81 -1.43,-0.15 -3.04,-1.53 -2.73,-3.14 0.58,-2.99 2.32,-3.8 8.05,-7.98 1.54,-1.12 3.65,-1.18 4.97,0.34 1.19,1.37 1.18,3.82 -0.34,4.97 v 0"
         style="fill:#62bdf3;fill-opacity:1;fill-rule:nonzero;stroke:none;stroke-width:0.1"
         id="path628" />
      <path
         d="m 2462.396,931.75295 c -2.45,-1.3 -1.47,-5.55 1.19,-5.89 2.55,-0.34 3.54,0.07 15.9,2.33 1.91,0.35 3.48,1.74 3.34,3.84 -0.12,1.77 -1.91,3.68 -3.84,3.33 -12.84,-2.31 -14.12,-2.3 -16.59,-3.61"
         style="fill:#62bdf3;fill-opacity:1;fill-rule:nonzero;stroke:none;stroke-width:0.1"
         id="path630" />
      <path
         d="m 2481.776,911.52295 c -6.78,-6.56 -7.77,-5.4 -10.45,-9.41 -1.22,-1.84 0.8,-4.76 2.93,-4.37 2.73,0.5 3.47,0.96 7.03,3.79 2.07,1.64 4.05,3.4 5.96,5.23 1.41,1.36 1.03,3.91 -0.36,5.11 -1.58,1.38 -3.7,1.02 -5.11,-0.35 v 0"
         style="fill:#62bdf3;fill-opacity:1;fill-rule:nonzero;stroke:none;stroke-width:0.1"
         id="path632" />
      <path
         d="m 1321.355,334.41295 h 14.522 V 1105.533 c 0,4.01 -3.251,7.26 -7.261,7.26 v 0 c -4.01,0 -7.261,-3.25 -7.261,-7.26 V 334.41295"
         style="fill:#3797db;fill-opacity:1;fill-rule:nonzero;stroke:none;stroke-width:0.1"
         id="path634" />
      <path
         d="m 1419.447,334.41295 h 14.521 V 1118.593 c 0,4.01 -3.25,7.26 -7.26,7.26 v 0 c -4.009,0 -7.261,-3.25 -7.261,-7.26 V 334.41295"
         style="fill:#3797db;fill-opacity:1;fill-rule:nonzero;stroke:none;stroke-width:0.1"
         id="path636" />
      <path
         d="m 1431.626,1020.503 h -99.948 v 8.7 h 99.948 v -8.7"
         style="fill:#3797db;fill-opacity:1;fill-rule:nonzero;stroke:none;stroke-width:0.1"
         id="path638" />
      <path
         d="m 1431.626,903.89295 h -99.948 v 8.71 h 99.948 v -8.71"
         style="fill:#3797db;fill-opacity:1;fill-rule:nonzero;stroke:none;stroke-width:0.1"
         id="path640" />
      <path
         d="m 1431.626,787.29295 h -99.948 v 8.7 h 99.948 v -8.7"
         style="fill:#3797db;fill-opacity:1;fill-rule:nonzero;stroke:none;stroke-width:0.1"
         id="path642" />
      <path
         d="m 1431.626,670.68295 h -99.948 v 8.71 h 99.948 v -8.71"
         style="fill:#3797db;fill-opacity:1;fill-rule:nonzero;stroke:none;stroke-width:0.1"
         id="path644" />
      <path
         d="m 1359.56,605.37295 h -63.051 c -5.207,0 -9.426,-4.21 -9.426,-9.42 v -35.39 h 10.543 v 33.55 h 61.934 v 11.26"
         style="fill:#13375b;fill-opacity:1;fill-rule:nonzero;stroke:none;stroke-width:0.1"
         id="path646" />
      <path
         d="m 1371.611,629.28295 -19.544,20.62 c 0,0 -20.919,-11.51 -45.305,-22.5 -6.704,11.67 -17.645,50.05 -18.234,51.88 -0.589,1.84 12.815,24.89 9.817,25.47 -2.999,0.58 -6.892,-12.31 -10.062,-11.01 -3.169,1.31 -11.32,31.22 -13.227,29.58 -3.57,-3.05 4.287,-18.6 2.406,-19.73 -1.882,-1.13 -6.655,17.23 -10.289,16.45 -3.633,-0.78 6.137,-16.72 5.064,-18.25 -1.071,-1.53 -11.282,13.42 -13.392,9.95 -1.145,-1.87 9.419,-13.01 7.246,-14.26 -2.172,-1.25 -11.692,5.77 -12.83,3.5 -1.137,-2.28 8.884,-4.64 11.665,-10.4 2.783,-5.75 7.841,-7.99 9.519,-18.86 1.677,-10.86 6.268,-68.99 18.116,-73.66 10.346,-4.07 79.05,31.22 79.05,31.22"
         style="fill:#efac7f;fill-opacity:1;fill-rule:nonzero;stroke:none;stroke-width:0.1"
         id="path648" />
      <path
         d="m 1551.88,361.30295 c 1.543,10.96 1.422,31.2 0.638,52.56 9.565,0.48 17.657,1.09 27.213,1.72 -3.98,-27.27 -6.657,-55.36 -6.657,-55.36 l 0.654,-5.39 0.353,-15.97 -54.126,-0.41 c 0,0 11.407,5.06 27.364,15.05 1.181,0.74 3.899,3.1 4.561,7.8"
         style="fill:#efac7f;fill-opacity:1;fill-rule:nonzero;stroke:none;stroke-width:0.1"
         id="path650" />
      <path
         d="m 1575.539,335.42295 -57.073,-0.67 c -2.066,0.18 -2.57,1.86 -1.854,2.89 1.476,2.12 7.993,3.67 15.32,7.05 12.851,-1.34 39.738,7.44 41.765,10.39 1.171,-5.91 2.99,-19.4 1.842,-19.66"
         style="fill:#45258f;fill-opacity:1;fill-rule:nonzero;stroke:none;stroke-width:0.1"
         id="path652" />
      <path
         d="m 1648.856,372.59295 c -4.467,10.14 -15.241,27.27 -27.163,45.01 7.873,5.45 15.676,11 23.464,16.58 10.993,-25.28 22.277,-51.33 22.277,-51.33 l 3.397,-4.24 8.72,-13.39 -45.784,-28.87 c 0,0 7.029,10.31 15.321,27.22 0.613,1.25 1.682,4.68 -0.232,9.02"
         style="fill:#efac7f;fill-opacity:1;fill-rule:nonzero;stroke:none;stroke-width:0.1"
         id="path654" />
      <path
         d="m 1681.935,361.87295 -47.482,-29.45 c -1.854,-0.93 -3.162,0.22 -3.096,1.48 0.135,2.58 4.855,7.33 9.299,14.07 11.627,5.63 29.739,27.4 29.907,30.98 4.108,-4.41 12.215,-16.26 11.372,-17.08"
         style="fill:#45258f;fill-opacity:1;fill-rule:nonzero;stroke:none;stroke-width:0.1"
         id="path656" />
      <path
         d="m 1626.592,818.39295 c 4.233,20.64 -9.042,41.1 -27.656,48.78 0.124,11.75 -3.68,26.62 -11.699,34.66 -15.82,15.86 -46.007,21.42 -57.641,1.2 -15.366,-8.69 -27.454,-27.52 -22.872,-44.67 -14.892,-15.42 -9.235,-43.33 12.479,-56.51 -0.344,-17.3 8.804,-34.5 23.937,-41.9 3.633,-1.77 9.316,-4.25 10.034,-5.01 -0.946,0.89 11.209,-32.96 48.972,-17.47 38.532,15.81 49.561,60.31 24.446,80.92"
         style="fill:#5e2e0d;fill-opacity:1;fill-rule:nonzero;stroke:none;stroke-width:0.1"
         id="path658" />
      <path
         d="m 1550.883,376.78295 c 4.689,26 -11.595,90.46 -21.525,118.8 -10.33,29.48 -16.898,154.23 -16.898,154.23 l 11.71,13.69 47.793,2.86 c 0,0 -20.335,-62.48 -20.335,-83.95 0,-21.46 9.894,-76.88 21.513,-105.72 10.719,-26.6 6.266,-82.37 3.021,-100.72 -8.642,-1.39 -16.838,-0.89 -25.279,0.81"
         style="fill:#96a65f;fill-opacity:1;fill-rule:nonzero;stroke:none;stroke-width:0.1"
         id="path660" />
      <path
         d="m 1584.042,660.56295 c 2.19,-2.19 15.033,-17.4 15.033,-28.03 0,-10.63 -24.207,-106.32 -18.398,-112.12 5.81,-5.8 27.302,-20.33 41.016,-40.55 11.554,-17.05 38.052,-66.33 43.109,-78.05 -9.984,-6.95 -18.653,-10.11 -28.656,-13.46 -1.604,8.72 -79.872,95 -88.811,113.05 -8.941,18.04 -13.783,100.52 -18.302,111.48 -4.517,10.95 -16.573,38.78 -16.573,38.78 l 71.582,8.9"
         style="fill:#9ed16f;fill-opacity:1;fill-rule:nonzero;stroke:none;stroke-width:0.1"
         id="path662" />
      <path
         d="m 1514.318,731.08295 c 0,0 -29.503,-33.67 -62.157,-46.34 -5.105,-1.98 -9.495,-5.86 -9.495,-5.86 0,-3.43 6.126,-0.94 6.126,-0.94 0,0 -2.052,-3.35 -0.975,-7.43 1.075,-4.08 8.195,-1.37 12.068,-1.37 1.775,0 10.879,10.19 23.172,16.18 14.549,7.09 31.715,14.02 33.814,16.12 3.873,3.86 -1.405,30.88 -2.553,29.64"
         style="fill:#efac7f;fill-opacity:1;fill-rule:nonzero;stroke:none;stroke-width:0.1"
         id="path664" />
      <path
         d="m 1574.33,825.85295 c 0,0 -29.695,3.01 -45.188,-6.87 -15.493,-9.89 -25.391,-45.11 -25.391,-60.15 0,-15.04 11.17,-94.08 6.876,-109.12 0,0 49.07,2.15 65.855,2.15 16.783,0 20.227,6.45 20.227,6.45 0,0 -34.86,34.36 -34.86,49.4 0,15.03 12.481,118.14 12.481,118.14"
         style="fill:#45258f;fill-opacity:1;fill-rule:nonzero;stroke:none;stroke-width:0.1"
         id="path666" />
      <path
         d="m 1211.342,422.26295 h -36.869 c 0.669,10.35 8.566,18.55 18.179,18.55 h 18.69 z m -42.489,-1.42 v -51.5 h 5.572 v 46.82 h 36.917 v -16.07 c -14.272,-1.53 -25.423,-14.72 -25.423,-30.75 0,-17.07 12.629,-30.9 28.21,-30.9 15.58,0 28.209,13.83 28.209,30.9 0,16.03 -11.151,29.22 -25.424,30.75 v 16.07 h 7.661 v 6.1 h -7.661 v 18.55 h 7.661 v 6.1 h -7.661 v 20.63 h 100.998 v 9.15 h -55.803 v 52.44 c 0,14.01 12.876,29.68 30.107,29.68 h 47.985 v 9.15 h -47.985 c -20.491,0 -38.466,-18.14 -38.466,-38.83 v -52.44 h -36.836 v 29.42 h -5.572 v -59.2 h -18.69 c -13.122,0 -23.799,-11.7 -23.799,-26.07"
         style="fill:#45258f;fill-opacity:1;fill-rule:nonzero;stroke:none;stroke-width:0.1"
         id="path668" />
      <path
         d="m 1190.727,412.75295 c 0,0 1.124,-19.86 1.13,-19.9 0.413,-2.52 2.041,-8.75 2.041,-11.04 0,-8.61 -38.312,7.31 -29.726,11.12 0.777,0.35 5.201,5.12 6.311,7.84 1.979,4.86 2.845,14.36 2.845,14.36 l 17.399,-2.38"
         style="fill:#f48c7f;fill-opacity:1;fill-rule:nonzero;stroke:none;stroke-width:0.1"
         id="path670" />
      <path
         d="m 1164.267,393.02295 c 0,0 8.995,-2.64 13.601,-3.29 4.608,-0.66 10.681,4.88 13.94,3.38 3.587,-1.65 3.792,-16.79 3.792,-16.79 0,0 -48.155,-1.6 -62.145,0.45 -5.586,0.82 12.424,10.11 30.812,16.25"
         style="fill:#466eb6;fill-opacity:1;fill-rule:nonzero;stroke:none;stroke-width:0.1"
         id="path672" />
      <path
         d="m 1382.522,455.17295 h 10.583 v 201.63 c 0,6.81 6.659,12.34 14.846,12.34 h 95.205 c 2.541,0 4.602,1.97 4.602,4.4 v 0 c 0,2.43 -2.061,4.4 -4.602,4.4 h -95.205 c -14.022,0 -25.429,-9.48 -25.429,-21.14 v -201.63"
         style="fill:#45258f;fill-opacity:1;fill-rule:nonzero;stroke:none;stroke-width:0.1"
         id="path674" />
      <path
         d="m 1332.903,497.47295 c 35.272,0 63.866,-28.85 63.866,-64.44 0,-35.59 -28.594,-64.44 -63.866,-64.44 -35.272,0 -63.866,28.85 -63.866,64.44 0,35.59 28.594,64.44 63.866,64.44"
         style="fill:#45258f;fill-opacity:1;fill-rule:nonzero;stroke:none;stroke-width:0.1"
         id="path676" />
      <path
         d="m 1262.504,433.03295 c 0,39.23 31.518,71.03 70.399,71.03 38.881,0 70.399,-31.8 70.399,-71.03 0,-39.23 -31.518,-71.03 -70.399,-71.03 -38.881,0 -70.399,31.8 -70.399,71.03 z m -7.37,0 c 0,-43.33 34.819,-78.46 77.769,-78.46 42.95,0 77.769,35.13 77.769,78.46 0,43.34 -34.819,78.47 -77.769,78.47 -42.95,0 -77.769,-35.13 -77.769,-78.47"
         style="fill:#45258f;fill-opacity:1;fill-rule:nonzero;stroke:none;stroke-width:0.1"
         id="path678" />
      <path
         d="m 1383.963,522.44295 h 31.246 v 121.06 h -31.246 v -121.06"
         style="fill:#7772d6;fill-opacity:1;fill-rule:nonzero;stroke:none;stroke-width:0.1"
         id="path680" />
      <path
         d="m 1281.462,446.91295 h -26.436 c -14.246,0 -25.837,-11.7 -25.837,-26.07 v -51.5 h 6.049 v 51.5 c 0,11.01 8.876,19.97 19.788,19.97 h 26.436 v 6.1"
         style="fill:#7772d6;fill-opacity:1;fill-rule:nonzero;stroke:none;stroke-width:0.1"
         id="path682" />
      <path
         d="m 1270.527,514.65295 h -82.171 v -14.1 h 82.171 v 14.1"
         style="fill:#45258f;fill-opacity:1;fill-rule:nonzero;stroke:none;stroke-width:0.1"
         id="path684" />
      <path
         d="m 1281.012,422.26295 h -48.799 v -6.1 h 48.799 v 6.1"
         style="fill:#7772d6;fill-opacity:1;fill-rule:nonzero;stroke:none;stroke-width:0.1"
         id="path686" />
      <path
         d="m 1278.34,467.54295 h 112.671 v 9.15 H 1278.34 v -9.15"
         style="fill:#7772d6;fill-opacity:1;fill-rule:nonzero;stroke:none;stroke-width:0.1"
         id="path688" />
      <path
         d="M 1415.209,514.86295 H 1268.51 v -14.31 h 146.699 v 14.31"
         style="fill:#45258f;fill-opacity:1;fill-rule:nonzero;stroke:none;stroke-width:0.1"
         id="path690" />
      <path
         d="m 1410.672,444.38295 h 9.074 v 201.64 c 0,6.8 5.71,12.33 12.73,12.33 h 85.573 v 8.8 h -85.573 c -12.022,0 -21.804,-9.48 -21.804,-21.13 v -201.64"
         style="fill:#7772d6;fill-opacity:1;fill-rule:nonzero;stroke:none;stroke-width:0.1"
         id="path692" />
      <path
         d="m 1244.289,369.34295 c 0,-17.07 15.246,-30.9 34.051,-30.9 18.807,0 34.051,13.83 34.051,30.9 0,17.07 -15.244,30.9 -34.051,30.9 -18.805,0 -34.051,-13.83 -34.051,-30.9"
         style="fill:#45258f;fill-opacity:1;fill-rule:nonzero;stroke:none;stroke-width:0.1"
         id="path694" />
      <path
         d="m 1257.607,369.34295 c 0,-10.39 9.283,-18.82 20.733,-18.82 11.452,0 20.734,8.43 20.734,18.82 0,10.39 -9.282,18.81 -20.734,18.81 -11.45,0 -20.733,-8.42 -20.733,-18.81"
         style="fill:#7772d6;fill-opacity:1;fill-rule:nonzero;stroke:none;stroke-width:0.1"
         id="path696" />
      <path
         d="m 1195.299,567.96295 c 9.847,9.85 147.081,5.1 147.081,5.1 0,0 -116.262,-28.37 -123.05,-32.07 -6.789,-3.7 -32.053,-128.56 -32.082,-130.19 -7.013,1.67 -11.259,0.4 -18.395,1.86 1.142,21.7 10.582,139.44 26.446,155.3"
         style="fill:#3b77be;fill-opacity:1;fill-rule:nonzero;stroke:none;stroke-width:0.1"
         id="path698" />
      <path
         d="m 1208.675,412.15295 c 0,0 1.123,-19.86 1.131,-19.9 0.413,-2.52 2.04,-8.75 2.04,-11.05 0,-8.61 -38.312,7.32 -29.726,11.13 0.778,0.35 6.056,4.91 6.312,7.84 0.394,4.51 0.185,11.7 0.185,11.7 l 20.058,0.28"
         style="fill:#f7a491;fill-opacity:1;fill-rule:nonzero;stroke:none;stroke-width:0.1"
         id="path700" />
      <path
         d="m 1182.215,392.41295 c 0,0 8.995,-2.63 13.601,-3.29 4.607,-0.66 10.681,4.89 13.939,3.39 3.587,-1.65 3.794,-16.79 3.794,-16.79 0,0 -48.155,-1.6 -62.147,0.45 -5.585,0.82 12.425,10.11 30.813,16.24"
         style="fill:#466eb6;fill-opacity:1;fill-rule:nonzero;stroke:none;stroke-width:0.1"
         id="path702" />
      <path
         d="m 1363.776,544.88295 c 0,0 -1.185,-31.15 -11.554,-31.52 -10.368,-0.38 -76.907,-1.86 -114.384,1.5 l -25.214,-111.44 -29.611,2.85 c 0,0 8.919,74.43 12.09,102.74 3.12,27.85 12.114,51.22 27.86,51.78 15.745,0.57 119.261,16.59 119.261,16.59 l 21.552,-32.5"
         style="fill:#3797db;fill-opacity:1;fill-rule:nonzero;stroke:none;stroke-width:0.1"
         id="path704" />
      <path
         d="m 1391.686,690.31295 c 0,0 16.799,-4.26 14.521,-37.07 -2.278,-32.82 -20.426,-132.09 -53.985,-139.88 -33.557,-7.8 -55.417,62.87 -55.417,62.87 0,0 21.173,6.96 29.99,39.8 6.108,22.76 22.481,74.11 26.582,76.58 10.18,6.14 38.309,-2.3 38.309,-2.3"
         style="fill:#9ed16f;fill-opacity:1;fill-rule:nonzero;stroke:none;stroke-width:0.1"
         id="path706" />
      <path
         d="m 1321.355,469.65295 h 9.075 v 59.48 c 0,14.01 13.978,29.68 32.685,29.68 h 52.094 v 9.15 h -52.094 c -22.245,0 -41.76,-18.14 -41.76,-38.83 v -59.48"
         style="fill:#7772d6;fill-opacity:1;fill-rule:nonzero;stroke:none;stroke-width:0.1"
         id="path708" />
      <path
         d="m 1341.859,424.53295 c 0,-40.87 32.84,-74.01 73.35,-74.01 40.51,0 73.349,33.14 73.349,74.01 0,40.87 -32.839,74.01 -73.349,74.01 -40.51,0 -73.35,-33.14 -73.35,-74.01"
         style="fill:#7772d6;fill-opacity:1;fill-rule:nonzero;stroke:none;stroke-width:0.1"
         id="path710" />
      <path
         d="m 1334.356,424.53295 c 0,45.06 36.199,81.58 80.853,81.58 44.654,0 80.854,-36.52 80.854,-81.58 0,-45.05 -36.2,-81.58 -80.854,-81.58 -44.654,0 -80.853,36.53 -80.853,81.58 z m -8.464,0 c 0,-49.77 39.989,-90.12 89.317,-90.12 49.328,0 89.317,40.35 89.317,90.12 0,49.77 -39.989,90.12 -89.317,90.12 -49.328,0 -89.317,-40.35 -89.317,-90.12"
         style="fill:#7772d6;fill-opacity:1;fill-rule:nonzero;stroke:none;stroke-width:0.1"
         id="path712" />
      <path
         d="m 1354.714,424.53295 c 0,-33.71 27.085,-61.04 60.495,-61.04 33.41,0 60.494,27.33 60.494,61.04 0,33.71 -27.084,61.04 -60.494,61.04 -33.41,0 -60.495,-27.33 -60.495,-61.04"
         style="fill:#45258f;fill-opacity:1;fill-rule:nonzero;stroke:none;stroke-width:0.1"
         id="path714" />
      <path
         d="m 1401.598,424.53295 c 0,-7.58 6.094,-13.73 13.611,-13.73 7.518,0 13.611,6.15 13.611,13.73 0,7.59 -6.093,13.73 -13.611,13.73 -7.517,0 -13.611,-6.14 -13.611,-13.73"
         style="fill:#7772d6;fill-opacity:1;fill-rule:nonzero;stroke:none;stroke-width:0.1"
         id="path716" />
      <path
         d="m 1145.403,359.95295 h 92.355 v 16 h -92.355 v -16"
         style="fill:#45258f;fill-opacity:1;fill-rule:nonzero;stroke:none;stroke-width:0.1"
         id="path718" />
      <path
         d="m 1185.33,359.95295 h 52.428 v 16 h -52.428 v -16"
         style="fill:#7772d6;fill-opacity:1;fill-rule:nonzero;stroke:none;stroke-width:0.1"
         id="path720" />
      <path
         d="m 1275.315,359.95295 h 6.05 v 140.77 h -6.05 v -140.77"
         style="fill:#7772d6;fill-opacity:1;fill-rule:nonzero;stroke:none;stroke-width:0.1"
         id="path722" />
      <path
         d="m 1274.749,367.54295 c 0,-2.08 1.671,-3.76 3.733,-3.76 2.062,0 3.734,1.68 3.734,3.76 0,2.08 -1.672,3.77 -3.734,3.77 -2.062,0 -3.733,-1.69 -3.733,-3.77"
         style="fill:#45258f;fill-opacity:1;fill-rule:nonzero;stroke:none;stroke-width:0.1"
         id="path724" />
      <path
         d="m 1381.544,778.16295 c 0,0 11.767,7.95 16.743,-5.98 -0.038,0.11 4.155,0.06 4.721,-0.13 2.42,-0.81 4.76,-3.34 6.917,-4.72 7.685,-4.92 11.228,-14.48 11.647,-23.25 0.508,-10.66 -3.895,-18.45 -10.901,-26.14 -2.063,-2.27 -4.27,-4.48 -6.973,-5.93 -3.262,-1.75 -5.839,-0.36 -8.904,-1.1 -2.581,-0.63 -3.488,-3.35 -6.532,-2.37 -4.266,1.38 -8.745,6.72 -14.035,5.93 -5.284,-0.79 -17.484,3.97 -17.516,3.98 -15.674,6.11 -5.09,36.45 -2.086,47.21 2.825,10.13 17.222,16.16 26.919,12.5"
         style="fill:#282828;fill-opacity:1;fill-rule:nonzero;stroke:none;stroke-width:0.1"
         id="path726" />
      <path
         d="m 1367.382,709.23295 -4.07,-11.11 -2.195,-6.21 c 0,0 -0.153,-11.11 2.439,-13.99 4.459,-4.95 22.801,13.41 22.801,13.41 l 5.809,34.94 -24.784,-17.04"
         style="fill:#efac7f;fill-opacity:1;fill-rule:nonzero;stroke:none;stroke-width:0.1"
         id="path728" />
      <path
         d="m 1390.281,714.95295 c -6.975,-10.82 -18.993,-15.76 -27.008,-16.93 l 4.109,11.21 24.784,17.04 -1.885,-11.32"
         style="fill:#d19369;fill-opacity:1;fill-rule:nonzero;stroke:none;stroke-width:0.1"
         id="path730" />
      <path
         d="m 1387.402,762.16295 c -9.339,5.72 -21.596,1.38 -25.439,-8.7 -1.67,-4.38 -3.535,-9.94 -5.023,-16.14 -3.579,-14.91 0.954,-31.2 7.754,-32.7 6.8,-1.5 27.734,4.04 33.11,25.15 3.319,13.03 -0.601,26.4 -10.402,32.39"
         style="fill:#efac7f;fill-opacity:1;fill-rule:nonzero;stroke:none;stroke-width:0.1"
         id="path732" />
      <path
         d="m 1392.422,729.19295 c -0.73,-3.3 0.869,-6.46 3.57,-7.06 2.701,-0.59 5.483,1.6 6.213,4.9 0.729,3.31 -0.869,6.47 -3.57,7.07 -2.702,0.59 -5.483,-1.6 -6.213,-4.91"
         style="fill:#efac7f;fill-opacity:1;fill-rule:nonzero;stroke:none;stroke-width:0.1"
         id="path734" />
      <path
         d="m 1371.421,723.01295 c 0,0 8.962,-2.93 9.693,-6.22 0.732,-3.3 -0.365,-8.05 -4.755,-11.71 -4.39,-3.66 -13.778,-1.4 -16.339,0.61 -2.56,2.01 -4.512,10.55 -1.951,15.3 2.56,4.76 13.352,2.02 13.352,2.02"
         style="fill:#282828;fill-opacity:1;fill-rule:nonzero;stroke:none;stroke-width:0.1"
         id="path736" />
      <path
         d="m 1374.347,716.12295 c 0,0 -0.054,-3.67 -1.28,-4.33 -1.189,-0.64 -2.693,-1.18 -4.085,-1.31 -2.256,-0.22 -4.291,0.75 -5.477,2.48 -0.117,0.17 -0.224,0.35 -0.315,0.53 -0.915,1.83 -1.098,5.06 -1.098,5.06 0,0 3.781,0.92 5.975,0.55 2.195,-0.36 6.28,-2.98 6.28,-2.98"
         style="fill:#efac7f;fill-opacity:1;fill-rule:nonzero;stroke:none;stroke-width:0.1"
         id="path738" />
      <path
         d="m 1471.258,673.34295 c 3.55,3.55 20.012,9.02 32.493,18.05 5.519,3.98 16.129,9.23 26.454,14.95 7.543,-4.18 14.365,-9.43 19.46,-15.71 -18.684,-8.58 -38.96,-17.22 -42.041,-20.3 -5.811,-5.79 -15.924,-18.9 -18.291,-18.9 -2.366,0 -20.334,5.26 -23.024,7.95 -2.689,2.69 1.399,10.42 4.949,13.96"
         style="fill:#efac7f;fill-opacity:1;fill-rule:nonzero;stroke:none;stroke-width:0.1"
         id="path740" />
      <path
         d="m 1530.205,706.34295 c 13.023,7.2 25.59,15.14 26.91,22.21 2.367,12.67 -8.392,67.44 -2.367,77.97 6.025,10.52 19.582,19.33 19.582,19.33 2.152,0 9.897,-4.73 12.049,-14.18 2.153,-9.45 -1.721,-94.51 -3.873,-102.24 -1.01,-3.63 -15.737,-18.09 -32.277,-25.69 -5.093,6.28 -12.481,18.42 -20.024,22.6"
         style="fill:#7772d6;fill-opacity:1;fill-rule:nonzero;stroke:none;stroke-width:0.1"
         id="path742" />
      <path
         d="m 1396.056,591.62295 -51.923,-13.6 c 0,0 -15.265,-11.01 -22.13,-13.2 -6.865,-2.18 -15.255,-9.75 -13.611,-12.07 1.646,-2.32 10.27,5.57 11.672,5.33 1.4,-0.25 -5.07,-9.58 -6.12,-15.69 -1.05,-6.12 -3.152,-12.06 0.356,-11.58 3.508,0.48 6.055,14.26 6.055,14.26 0,0 5.393,10.41 6.264,9.18 0.87,-1.22 -3.602,-8.38 -3.602,-8.38 0,0 -1.062,-7.73 -1.529,-10.45 -0.348,-2.03 1.519,-8.12 3.111,-5.88 0.936,1.32 0.495,6.34 1.582,9.21 2.23,5.89 5.872,10.55 5.872,10.55 0,0 -3.902,-17.62 -1.45,-18.04 2.452,-0.42 4.988,14.18 4.988,14.18 0,0 5.992,12.16 8.607,13.24 2.615,1.09 9.803,5.72 15.364,7.65 5.558,1.92 28.541,-4.43 38.795,-4.56 10.253,-0.14 26.892,6.21 28.272,14.25 0.422,2.46 -1.111,5.17 -3.445,7.76 -6.781,7.51 -17.329,10.41 -27.128,7.84"
         style="fill:#efac7f;fill-opacity:1;fill-rule:nonzero;stroke:none;stroke-width:0.1"
         id="path744" />
      <path
         d="m 1391.686,690.31295 c 0,0 15.708,2.8 29.928,-22.78 14.221,-25.59 5.015,-91.51 5.015,-91.51 l -30.573,15.6 -4.37,98.69"
         style="fill:#96a65f;fill-opacity:1;fill-rule:nonzero;stroke:none;stroke-width:0.1"
         id="path746" />
      <path
         d="m 1461.642,668.23295 c -1.844,0 -11.516,-0.61 -13.036,0.91 -1.518,1.52 5.003,5.4 5.662,4.74 0.659,-0.65 3.423,0.79 4.345,-0.13 0.922,-0.92 3.69,0.13 4.476,-0.65 0.789,-0.79 0.396,-4.87 -1.447,-4.87"
         style="fill:#efac7f;fill-opacity:1;fill-rule:nonzero;stroke:none;stroke-width:0.1"
         id="path748" />
      <path
         d="m 1558.911,852.36295 c 0,0 -3.307,-18.18 -2.645,-25.35 0.661,-7.17 -2.522,-30.28 -16.803,-30.36 -14.282,-0.08 -4.577,23.99 -3.231,31.02 1.344,7.03 3.527,34.17 3.527,34.17 l 19.152,-9.48"
         style="fill:#efac7f;fill-opacity:1;fill-rule:nonzero;stroke:none;stroke-width:0.1"
         id="path750" />
      <path
         d="m 1538.878,851.55295 c 0.222,5.94 1.296,10.68 1.296,10.68 l 18.736,-9.87 c 0,0 -0.676,-3.72 -1.355,-8.46 -8.383,-1.79 -15.045,2.13 -18.677,7.65"
         style="fill:#d19369;fill-opacity:1;fill-rule:nonzero;stroke:none;stroke-width:0.1"
         id="path752" />
      <path
         d="m 1559.317,905.16295 c 0,0 8.046,-2.86 12.425,-11.61 4.38,-8.75 5.824,-33.24 -11.827,-42.65 -17.651,-9.41 -29.295,7.95 -28.2,23.49 1.096,15.55 5.99,35.93 27.602,30.77"
         style="fill:#efac7f;fill-opacity:1;fill-rule:nonzero;stroke:none;stroke-width:0.1"
         id="path754" />
      <path
         d="m 1526.47,878.73295 c -0.465,-4.04 0.961,-7.47 3.184,-7.69 2.224,-0.21 4.404,2.89 4.869,6.92 0.464,4.03 -0.961,7.47 -3.185,7.68 -2.224,0.21 -4.402,-2.88 -4.868,-6.91"
         style="fill:#efac7f;fill-opacity:1;fill-rule:nonzero;stroke:none;stroke-width:0.1"
         id="path756" />
      <path
         d="m 1570.187,871.94295 c -1.552,-3.9 -0.779,-8 1.726,-9.15 2.504,-1.15 5.792,1.08 7.343,4.98 1.552,3.91 0.779,8 -1.725,9.15 -2.504,1.15 -5.793,-1.08 -7.344,-4.98"
         style="fill:#efac7f;fill-opacity:1;fill-rule:nonzero;stroke:none;stroke-width:0.1"
         id="path758" />
      <path
         d="m 2437.806,1571.673 34.45,-47.28 22.81,24.94 z"
         style="fill:#45258f;fill-opacity:1;fill-rule:nonzero;stroke:none;stroke-width:0.1"
         id="path760" />
      <path
         d="m 2498.156,1562.403 -3.09,-13.07 -57.26,22.34 z"
         style="fill:#7772d6;fill-opacity:1;fill-rule:nonzero;stroke:none;stroke-width:0.1"
         id="path762" />
      <path
         d="m 2495.066,1544.343 -57.26,27.33 53.22,-47.28 z"
         style="fill:#7772d6;fill-opacity:1;fill-rule:nonzero;stroke:none;stroke-width:0.1"
         id="path764" />
      <path
         d="m 2492.096,1520.843 c 0,-0.01 0,-0.01 0,-0.02 0,0.01 0,0.01 0,0.02 z m 37.75,-33.16 c -0.42,0.04 -10.49,1.08 -23.24,9.02 -12.81,7.97 -17.6,21.89 -17.6,24.12 0,0.85 0.69,1.55 1.54,1.55 0.85,0 1.53,-0.68 1.55,-1.52 0.14,-1.49 4.23,-14.11 16.14,-21.53 12.09,-7.53 21.81,-8.55 21.9,-8.56 0.85,-0.08 1.47,-0.84 1.39,-1.69 -0.08,-0.85 -0.83,-1.47 -1.68,-1.39"
         style="fill:#62bdf3;fill-opacity:1;fill-rule:nonzero;stroke:none;stroke-width:0.1"
         id="path766" />
      <path
         d="m 2592.426,1473.703 c -17.85,3.58 -34.92,10.17 -50.75,19.59 -13.03,7.75 -23.54,19.58 -36.84,26.15 -0.77,0.37 -1.08,1.3 -0.7,2.07 0.37,0.76 1.3,1.07 2.07,0.7 13.76,-6.8 24.19,-18.62 37.05,-26.27 15.53,-9.24 32.27,-15.7 49.78,-19.22 6.43,-1.29 14.06,-1.76 22.66,-1.4 0.86,0.03 1.57,-0.63 1.61,-1.48 0.04,-0.85 -0.63,-1.57 -1.48,-1.61 -7.64,-0.32 -15.87,-0.04 -23.4,1.47"
         style="fill:#62bdf3;fill-opacity:1;fill-rule:nonzero;stroke:none;stroke-width:0.1"
         id="path768" />
      <path
         d="m 1836.696,931.76295 c 0,0 -37.9,67.63 -47.11,82.01005 -9.22,14.38 -33.24,71.51 -34.1,73.76 -0.86,2.25 16.54,29.29 12.66,30.21 -3.89,0.93 -8.18,-14.25 -12.33,-12.44 -4.14,1.82 -16.24,38.36 -18.6,36.55 -4.423,-3.39 6.52,-22.67 4.16,-23.89 -2.35,-1.21 -9.485,21.21 -14.11,20.55 -4.625,-0.66 8.8,-20.55 7.5,-22.31 -1.29,-1.75 -15.224,16.99 -17.744,12.99 -1.37,-2.17 12.809,-16.36 10.086,-17.69 -2.723,-1.33 -15.336,7.83 -16.672,5.19 -1.336,-2.64 11.665,-6.26 15.553,-13.38 3.888,-7.12 10.507,-10.2 13.257,-23.39 2.75,-13.19 6.86,-60.91 20.94,-84.72005 14.09,-23.81 45.06,-76.51 45.06,-76.51 l 31.45,13.07"
         style="fill:#efac7f;fill-opacity:1;fill-rule:nonzero;stroke:none;stroke-width:0.1"
         id="path770" />
      <path
         d="m 2004.656,605.37295 c 0,0 -3.09,3.85 -4.01,5.21 -1.09,1.59 -3.98,6.61 -3.98,6.61 0,0 -9.23,17.97 -7.84,18.54 1.38,0.58 4.69,-1.62 5.64,-2.53 0.96,-0.91 2.17,-1.88 3.13,-2.79 0.96,-0.91 2.43,-0.95 3.64,0.17 1.21,1.11 -1.82,5.56 -3.17,6.89 -4.23,4.15 -17.75,12.96 -19.14,13.95 -1.65,1.17 -11.91,35.29 -16.36,46.69 v 0 c -6.72,18.89 -12.68,38.65 -13.38,40.65 l -4.24,85.76 -32.04,10.68 c 0,0 3.37,-95.24 4.08,-99.99 0.34,-2.25 19.31,-44.83 19.33,-44.82 10.66,-20.37 20.11,-38.3 21.83,-41.79 0,0 2.32,-11.84 3.36,-19.46 1.03,-7.62 5.05,-14.22 5.67,-16.32 0.09,-0.31 1.83,-7.64 7.12,-15.24 4.56,-6.55 3.24,1.8 3.24,1.8 0,0 -6.26,13.68 -5.09,14.01 0.89,0.25 3.87,-7.44 8.84,-14.73 1.27,-1.88 2.54,-3.73 3.72,-5.42 3.09,-4.42 6.7,-3.75 4.2,1.42 -0.88,1.82 -2.41,4.81 -3.81,6.78 -1.51,2.14 -2.21,4.59 -3.2,6.58 -1.98,3.96 -3.47,6.81 -3.26,6.81 0.27,-0.01 0.43,1.06 1.85,-0.89 1.7,-2.34 4.22,-8.14 6.99,-11.39 1.58,-1.84 4.63,-5.89 4.63,-5.89 0,0 5.66,-6.02 6.09,-5.78 2.28,1.3 -0.54,6.78 -3.01,9 -0.84,2.23 -4.17,6.4 -4.17,6.4 0,0 -4.84,9.98 -3.43,10.71 1.15,0.59 17.35,-21 19.55,-19.53 1.79,1.19 -2.78,7.91 -2.78,7.91"
         style="fill:#efac7f;fill-opacity:1;fill-rule:nonzero;stroke:none;stroke-width:0.1"
         id="path772" />
      <path
         d="m 1947.346,939.48295 c 0.78,18.7 -1.98,37.18 -10.34,54.59 -7.21,14.99005 -25.02,23.49005 -41.27,23.51005 -51.6,0.07 -58.16,-68.10005 -91,-94.40005 -10.04,-8.03 -21.26,-14.58 -30.75,-23.24 -35.07,-32 -19.27,-91.23 12.92,-119.28 22.35,-19.46 57.46,-30.52 85,-15.31 14.38,7.95 25.29,21.15 33.06,35.62 11.04,20.53 18.15,44.22 26,66.1 8.35,23.29 15.35,47.54 16.38,72.41"
         style="fill:#282828;fill-opacity:1;fill-rule:nonzero;stroke:none;stroke-width:0.1"
         id="path774" />
      <path
         d="m 1786.066,337.22295 c 0,0 -3.64,-25.17 -9.89,-33.29 -2.1,-2.72 -5.93,-6.17 -8.45,-11.1 -3.92,-7.66 -1.75,-19.08 1.14,-25.36 1.48,-3.23 -0.11,-3.22 3.27,-4.26 10,-3.08 20.64,2.11 24.9,11.66 2.38,5.35 4.47,12.47 4.89,21.45 1.07,22.84 8.19,34.46 8.19,34.46 l -24.05,6.44"
         style="fill:#efac7f;fill-opacity:1;fill-rule:nonzero;stroke:none;stroke-width:0.1"
         id="path776" />
      <path
         d="m 1895.466,325.71295 c 0,0 2.25,-28.38 0.43,-37.6 -0.98,-4.94 -6.41,-15.1 -3.92,-19.75 2.49,-4.64 5.34,-5.81 5.34,-5.81 l 64.58,-1.03 c 3.52,-0.06 1.2,2.2 -1.64,4.28 -4.64,3.41 -8.39,5.66 -23.22,12.82 -0.97,0.46 -4.49,2.7 -5.76,3.47 -3.22,1.97 -6.45,5.06 -9.24,8.15 -4.63,5.15 -5.04,30.14 -5.04,30.14 l -21.53,5.33"
         style="fill:#efac7f;fill-opacity:1;fill-rule:nonzero;stroke:none;stroke-width:0.1"
         id="path778" />
      <path
         d="m 1945.946,702.87295 c 0,0 8.13,-46.07 2.8,-76.27 -5.34,-30.2 -30.97,-310.16 -30.97,-310.16 l -28.49,-1.6 c 0,0 -5.97,116.94 -4.9,133.2 1.07,16.27 9.52,43.48 9.52,43.48 l -2.83,94.42 35.94,124.04 18.93,-7.11"
         style="fill:#2d185d;fill-opacity:1;fill-rule:nonzero;stroke:none;stroke-width:0.1"
         id="path780" />
      <path
         d="m 1862.236,712.56295 c 0,0 -22.42,-33.69 -27.76,-61.57 -5.34,-27.88 3.92,-113.56 -6.35,-150.09 -5.57,-19.78 -26.64,-50.32 -29.84,-75.87 -3.21,-25.56 -15.78,-92.5 -15.78,-92.5 l 28.47,-5.63 66.17,167.18 51.89,151.11 13.3,77.83 -80.1,-10.46"
         style="fill:#45258f;fill-opacity:1;fill-rule:nonzero;stroke:none;stroke-width:0.1"
         id="path782" />
      <path
         d="m 1880.396,904.23295 c 0,0 -29.69,1.89 -41.44,-10.89 -11.75,-12.77 26.06,-113.86 28.19,-130.12 2.14,-16.26 -10.89,-59.51 -10.89,-59.51 0,0 69.76,-14 89.69,-0.84 0,0 2.14,116.95 0,128.56 -2.13,11.62 -19.93,58.86 -24.21,63.51 -4.27,4.65 -41.34,9.29 -41.34,9.29"
         style="fill:#9ed16f;fill-opacity:1;fill-rule:nonzero;stroke:none;stroke-width:0.1"
         id="path784" />
      <path
         d="m 1890.276,943.83295 c 0,0 -0.15,-0.87 -0.43,-2.36 -1.32,-7.12 -6.42,-30.76 -9.86,-37.25 -4.17,-7.85 14.25,-32.9 31.97,-29.84 5.27,0.91 -4.46,23.01 -3.99,25.35 0.89,4.48 2.11,10.59 3.35,16.86 0.7,3.54 1.41,7.12 2.08,10.49 1.89,9.58 3.44,17.41 3.44,17.41 l -26.56,-0.66"
         style="fill:#efac7f;fill-opacity:1;fill-rule:nonzero;stroke:none;stroke-width:0.1"
         id="path786" />
      <path
         d="m 1889.846,941.47295 c 0.28,1.49 0.43,2.36 0.43,2.36 l 26.56,0.66 c 0,0 -1.55,-7.83 -3.44,-17.41 -0.67,-3.35 -1.37,-6.91 -2.07,-10.43 -4.1,0.6 -8.38,2.59 -12.68,6.34 -4.68,4.1 -7.75,9.01 -9.6,14.26 0.32,1.67 0.6,3.12 0.8,4.22"
         style="fill:#d19369;fill-opacity:1;fill-rule:nonzero;stroke:none;stroke-width:0.1"
         id="path788" />
      <path
         d="m 1908.156,1004.073 c 0,0 -12.52,1.44 -20.37,-8.69005 -7.84,-10.12 -16.3,-41.44 3.19,-58.46 19.49,-17.03 38.75,2.24 41.6,22.68 2.86,20.43 3.97,45.21005 -24.42,44.47005"
         style="fill:#efac7f;fill-opacity:1;fill-rule:nonzero;stroke:none;stroke-width:0.1"
         id="path790" />
      <path
         d="m 1938.346,959.90295 c -2.33,-4.52 -6.23,-7.02 -8.72,-5.58 -2.49,1.43 -2.63,6.24 -0.3,10.76 2.32,4.51 6.23,7.01 8.72,5.58 2.49,-1.43 2.62,-6.25 0.3,-10.76"
         style="fill:#efac7f;fill-opacity:1;fill-rule:nonzero;stroke:none;stroke-width:0.1"
         id="path792" />
      <path
         d="m 1909.556,1007.413 c 0,0 -16.73,-29.77005 -28.69,-31.15005 -11.96,-1.38 -13.53,-17.2 -13.53,-17.2 0,0 4.28,36.46 16.12,43.49005 11.84,7.04 26.1,4.86 26.1,4.86"
         style="fill:#282828;fill-opacity:1;fill-rule:nonzero;stroke:none;stroke-width:0.1"
         id="path794" />
      <path
         d="m 1798.976,279.90295 c -15.51,-2.82 -25.84,6.24 -31.21,13.02 -3.94,-7.68 -5.87,-19.14 -2.96,-25.45 2.55,-5.56 10.02,-5.4 15.89,-5.62 6.22,-0.23 11.03,3.21 14.11,8.62 1.44,2.52 2.93,5.66 4.17,9.43"
         style="fill:#45258f;fill-opacity:1;fill-rule:nonzero;stroke:none;stroke-width:0.1"
         id="path796" />
      <path
         d="m 1931.266,282.10295 c -17.08,-4.37 -29.7,-1.4 -36.77,1.44 -1.82,-5.15 -4.23,-11.61 -2.95,-15.34 1.57,-4.56 3.8,-5.59 5.77,-5.65 15.6,-0.4 57.15,-0.96 69.04,-1.12 1.67,-0.02 2.58,1.92 1.51,3.19 -2.95,3.52 -35.32,16.7 -36.6,17.48"
         style="fill:#45258f;fill-opacity:1;fill-rule:nonzero;stroke:none;stroke-width:0.1"
         id="path798" />
      <path
         d="m 1884.006,968.78295 c 0.97,-5.29 -0.98,-10.14 -4.37,-10.84 -3.39,-0.69 -6.92,3.03 -7.89,8.32 -0.98,5.29 0.98,10.14 4.37,10.83 3.38,0.7 6.92,-3.03 7.89,-8.31"
         style="fill:#efac7f;fill-opacity:1;fill-rule:nonzero;stroke:none;stroke-width:0.1"
         id="path800" />
      <path
         d="m 1826.206,953.68295 c 0,0 41.92,-44.99 48.15,-63.12 6.23,-18.13 -6.08,-44.06 -23.07,-45.19 -17,-1.14 -54.82,79.84 -54.82,79.84 l 29.74,28.47"
         style="fill:#9ed16f;fill-opacity:1;fill-rule:nonzero;stroke:none;stroke-width:0.1"
         id="path802" />
      <path
         d="m 1873.806,1522.383 -47.33,-10.31 c -11.36,-2.47 -22.57,4.73 -25.04,16.08 l -4.41,20.26 c -2.47,11.35 4.73,22.56 16.08,25.04 l 47.34,10.3 c 11.35,2.47 22.56,-4.72 25.03,-16.08 l 4.41,-20.26 c 2.48,-11.35 -4.72,-22.56 -16.08,-25.03"
         style="fill:#7772d6;fill-opacity:1;fill-rule:nonzero;stroke:none;stroke-width:0.1"
         id="path804" />
      <path
         d="m 1801.876,1539.173 -20.28,-32.77 31.12,13.39 z"
         style="fill:#7772d6;fill-opacity:1;fill-rule:nonzero;stroke:none;stroke-width:0.1"
         id="path806" />
      <path
         d="m 1824.776,1548.313 7.9,1.93 c 0,0 8.3,9.71 8.01,12.42 -0.29,2.7 -3.18,7.91 -1.79,8.96 1.39,1.05 4.54,2.34 7.4,-0.68 2.08,-2.19 2.91,-11.72 3.98,-12.13 0.67,-0.25 5.24,0.73 8.57,1.5 2.18,0.5 4.47,-0.25 5.93,-1.95 v 0 c 0.99,-1.15 1.04,-2.84 0.12,-4.05 l -1.43,-1.87 1.8,-1.54 c 1.35,-1.14 1.52,-3.15 0.39,-4.51 l -1.16,-1.38 1.2,-0.87 c 1.55,-1.12 1.78,-3.34 0.49,-4.76 l -1.04,-1.14 0.26,-0.31 c 1.1,-1.25 1.06,-3.13 -0.1,-4.33 l -1.06,-1.11 -21.02,-5.14 c -1.97,-0.48 -4.02,-0.55 -6.01,-0.21 l -7.7,-0.59 c -0.82,-0.06 -1.57,0.49 -1.76,1.3 l -4.21,18.46 c -0.21,0.9 0.34,1.79 1.23,2"
         style="fill:#ffffff;fill-opacity:1;fill-rule:nonzero;stroke:none;stroke-width:0.1"
         id="path808" />
      <path
         d="m 2022.006,1762.353 c 42.4,-7.9 72.84,-35.42 67.99,-61.47 -2.42,-13.02 -13.21,-23.21 -28.7,-29.16 l 10.06,-41.61 -30.65,36.6 c -11.2,-1.4 -23.55,-1.06 -36.27,1.31 -42.41,7.89 -72.85,35.41 -68,61.46 4.85,26.05 43.16,40.77 85.57,32.87"
         style="fill:#62bdf3;fill-opacity:1;fill-rule:nonzero;stroke:none;stroke-width:0.1"
         id="path810" />
      <path
         d="m 2041.416,1705.113 c -6.5,-13.56 -22.77,-19.26 -36.31,-12.76 -13.55,6.51 -19.26,22.78 -12.75,36.33 6.51,13.55 22.77,19.26 36.31,12.75 13.55,-6.51 19.26,-22.77 12.75,-36.32"
         style="fill:#3797db;fill-opacity:1;fill-rule:nonzero;stroke:none;stroke-width:0.1"
         id="path812" />
      <path
         d="m 2001.906,1719.313 c -3.48,-7.25 -0.43,-15.94 6.81,-19.42 7.25,-3.48 15.94,-0.43 19.42,6.81 l -26.23,12.61"
         style="fill:#efefef;fill-opacity:1;fill-rule:nonzero;stroke:none;stroke-width:0.1"
         id="path814" />
      <path
         d="m 2641.906,979.56295 -9.38,-0.95 -3.2,14.92 -13.89,0.3 -4.22,10.78005 -5.45,-2.14 5.64,-14.41005 13.16,-0.29 3.33,-15.52 14.11,1.43 -0.1,5.88"
         style="fill:#7772d6;fill-opacity:1;fill-rule:nonzero;stroke:none;stroke-width:0.1"
         id="path816" />
      <path
         d="m 2587.836,1216.503 -21.95,9.62 -4.98,-15.16 -7.27,2.39 7.62,23.14 21.81,-9.55 5.57,17.92 20.08,-8.37 8.25,17.64 6.92,-3.24 -11.35,-24.27 -19.09,7.96 -5.61,-18.08"
         style="fill:#9ed16f;fill-opacity:1;fill-rule:nonzero;stroke:none;stroke-width:0.1"
         id="path818" />
    </g>
  </g>
</svg>
